<svg xmlns="http://www.w3.org/2000/svg" viewBox="0 0 774 600" width="774" height="600" preserveAspectRatio="xMidYMid meet" style="width: 100%; height: 100%; transform: translate3d(0px, 0px, 0px); content-visibility: visible;"><defs><clipPath id="__lottie_element_28181"><rect width="774" height="600" x="0" y="0"></rect></clipPath><clipPath id="__lottie_element_28183"><path d="M0,0 L774,0 L774,600 L0,600z"></path></clipPath><clipPath id="__lottie_element_28184"><path fill="#ffffff" clip-rule="nonzero" d=" M-10,-4 C-10,-4 2,346 2,346 C2,346 104,372 104,372 C104,372 176,429 176,429 C176,429 178,518.5 178,518.5 C178,518.5 253,467 253,467 C253,467 339,494 339,494 C339,494 522,486 522,486 C522,486 581.5,525.25 651,450 C651,450 682.25,416.75 689,367 C690,358 775,362 775,362 C775,362 780,-10 780,-10 C780,-10 -10,-4 -10,-4"></path></clipPath><linearGradient id="__lottie_element_28189" spreadMethod="pad" gradientUnits="userSpaceOnUse"><stop></stop><stop></stop><stop></stop></linearGradient><mask id="__lottie_element_28191"><path fill="url(#__lottie_element_28190)"></path></mask><linearGradient id="__lottie_element_28190" spreadMethod="pad" gradientUnits="userSpaceOnUse"><stop stop-color="rgb(255,255,255)"></stop><stop stop-color="rgb(255,255,255)"></stop><stop stop-color="rgb(255,255,255)"></stop></linearGradient><mask id="__lottie_element_28201" mask-type="alpha"><g style="display: none;"><g><path></path></g></g></mask><linearGradient id="__lottie_element_28214" spreadMethod="pad" gradientUnits="userSpaceOnUse"><stop></stop><stop></stop><stop></stop></linearGradient><linearGradient id="__lottie_element_28217" spreadMethod="pad" gradientUnits="userSpaceOnUse"><stop></stop><stop></stop><stop></stop></linearGradient><linearGradient id="__lottie_element_28221" spreadMethod="pad" gradientUnits="userSpaceOnUse"><stop></stop><stop></stop><stop></stop><stop></stop><stop></stop></linearGradient><linearGradient id="__lottie_element_28225" spreadMethod="pad" gradientUnits="userSpaceOnUse"><stop></stop><stop></stop><stop></stop><stop></stop><stop></stop></linearGradient><linearGradient id="__lottie_element_28229" spreadMethod="pad" gradientUnits="userSpaceOnUse"><stop></stop><stop></stop><stop></stop></linearGradient><linearGradient id="__lottie_element_28242" spreadMethod="pad" gradientUnits="userSpaceOnUse"><stop></stop><stop></stop><stop></stop></linearGradient><mask id="__lottie_element_28244"><path fill="url(#__lottie_element_28243)"></path></mask><linearGradient id="__lottie_element_28243" spreadMethod="pad" gradientUnits="userSpaceOnUse"><stop stop-color="rgb(255,255,255)"></stop><stop stop-color="rgb(255,255,255)"></stop><stop stop-color="rgb(255,255,255)"></stop></linearGradient><linearGradient id="__lottie_element_28250" spreadMethod="pad" gradientUnits="userSpaceOnUse"><stop></stop><stop></stop><stop></stop></linearGradient><mask id="__lottie_element_28252"><path fill="url(#__lottie_element_28251)"></path></mask><linearGradient id="__lottie_element_28251" spreadMethod="pad" gradientUnits="userSpaceOnUse"><stop stop-color="rgb(255,255,255)"></stop><stop stop-color="rgb(255,255,255)"></stop><stop stop-color="rgb(255,255,255)"></stop></linearGradient><linearGradient id="__lottie_element_28255" spreadMethod="pad" gradientUnits="userSpaceOnUse"><stop></stop><stop></stop><stop></stop></linearGradient><mask id="__lottie_element_28257"><path fill="url(#__lottie_element_28256)"></path></mask><linearGradient id="__lottie_element_28256" spreadMethod="pad" gradientUnits="userSpaceOnUse"><stop stop-color="rgb(255,255,255)"></stop><stop stop-color="rgb(255,255,255)"></stop><stop stop-color="rgb(255,255,255)"></stop></linearGradient><linearGradient id="__lottie_element_28267" spreadMethod="pad" gradientUnits="userSpaceOnUse"><stop></stop><stop></stop><stop></stop></linearGradient><linearGradient id="__lottie_element_28270" spreadMethod="pad" gradientUnits="userSpaceOnUse"><stop></stop><stop></stop><stop></stop></linearGradient><linearGradient id="__lottie_element_28274" spreadMethod="pad" gradientUnits="userSpaceOnUse"><stop></stop><stop></stop><stop></stop><stop></stop><stop></stop></linearGradient><linearGradient id="__lottie_element_28278" spreadMethod="pad" gradientUnits="userSpaceOnUse"><stop></stop><stop></stop><stop></stop><stop></stop><stop></stop></linearGradient><linearGradient id="__lottie_element_28282" spreadMethod="pad" gradientUnits="userSpaceOnUse"><stop></stop><stop></stop><stop></stop></linearGradient><clipPath id="__lottie_element_28299"><path d="M0,0 L774,0 L774,600 L0,600z"></path></clipPath><clipPath id="__lottie_element_28300"><path fill="#ffffff" clip-rule="nonzero" d=" M-10,-4 C-10,-4 2,346 2,346 C2,346 104,372 104,372 C104,372 176,429 176,429 C176,429 178,518.5 178,518.5 C178,518.5 253,467 253,467 C253,467 339,494 339,494 C339,494 522,486 522,486 C522,486 581.5,525.25 651,450 C651,450 682.25,416.75 689,367 C690,358 775,362 775,362 C775,362 780,-10 780,-10 C780,-10 -10,-4 -10,-4" fill-opacity="1"></path></clipPath><linearGradient id="__lottie_element_28305" spreadMethod="pad" gradientUnits="userSpaceOnUse" x1="-61.83399963378906" y1="103.33599853515625" x2="7.756999969482422" y2="18.121000289916992"><stop offset="1%" stop-color="rgb(0,202,114)"></stop><stop offset="50%" stop-color="rgb(0,202,114)"></stop><stop offset="100%" stop-color="rgb(0,202,114)"></stop></linearGradient><mask id="__lottie_element_28307"><path fill="url(#__lottie_element_28306)" d=" M-14.442999839782715,-130.23199462890625 C-14.442999839782715,-130.23199462890625 40.23699951171875,-58.38199996948242 40.23699951171875,-58.38199996948242 C40.23699951171875,-58.38199996948242 130.4739990234375,-55.31700134277344 130.4739990234375,-55.31700134277344 C130.4739990234375,-55.31700134277344 79.03900146484375,18.891000747680664 79.03900146484375,18.891000747680664 C79.03900146484375,18.891000747680664 104.00800323486328,105.65799713134766 104.00800323486328,105.65799713134766 C104.00800323486328,105.65799713134766 17.538999557495117,79.6709976196289 17.538999557495117,79.6709976196289 C17.538999557495117,79.6709976196289 -57.266998291015625,130.23199462890625 -57.266998291015625,130.23199462890625 C-57.266998291015625,130.23199462890625 -59.27199935913086,39.9640007019043 -59.27199935913086,39.9640007019043 C-59.27199935913086,39.9640007019043 -130.4739990234375,-15.557000160217285 -130.4739990234375,-15.557000160217285 C-130.4739990234375,-15.557000160217285 -45.24399948120117,-45.358001708984375 -45.24399948120117,-45.358001708984375 C-45.24399948120117,-45.358001708984375 -14.442999839782715,-130.23199462890625 -14.442999839782715,-130.23199462890625z"></path></mask><linearGradient id="__lottie_element_28306" spreadMethod="pad" gradientUnits="userSpaceOnUse" x1="-61.83399963378906" y1="103.33599853515625" x2="7.756999969482422" y2="18.121000289916992"><stop stop-color="rgb(255,255,255)" offset="0%" stop-opacity="1"></stop><stop stop-color="rgb(255,255,255)" offset="41%" stop-opacity="0.5"></stop><stop stop-color="rgb(255,255,255)" offset="100%" stop-opacity="0"></stop></linearGradient><mask id="__lottie_element_28323" mask-type="alpha"><g transform="matrix(0.9998477101325989,-0.017452405765652657,0.017452405765652657,0.9998477101325989,88.52818298339844,337.0505676269531)" opacity="1" style="display: block;"><g opacity="1" transform="matrix(1,0,0,1,108.75,115.25)"><path fill="rgb(15,16,72)" fill-opacity="1" d=" M-34.60499954223633,117.06900024414062 C-34.60499954223633,117.06900024414062 108.5,-32 108.5,-32 C108.5,-32 71.5,-27 44.5,-52 C17.5,-77 12.5,-95 20.5,-115 C20.5,-115 -112.4990005493164,26.93000030517578 -112.4990005493164,26.93000030517578 C-112.4990005493164,26.93000030517578 -82.5,86 -82.5,86 C-82.5,86 -39.5,115 -39.5,115"></path></g></g></mask><linearGradient id="__lottie_element_28341" spreadMethod="pad" gradientUnits="userSpaceOnUse"><stop></stop><stop></stop><stop></stop></linearGradient><linearGradient id="__lottie_element_28345" spreadMethod="pad" gradientUnits="userSpaceOnUse"><stop></stop><stop></stop><stop></stop></linearGradient><linearGradient id="__lottie_element_28349" spreadMethod="pad" gradientUnits="userSpaceOnUse"><stop></stop><stop></stop><stop></stop></linearGradient><linearGradient id="__lottie_element_28353" spreadMethod="pad" gradientUnits="userSpaceOnUse"><stop></stop><stop></stop><stop></stop></linearGradient><linearGradient id="__lottie_element_28358" spreadMethod="pad" gradientUnits="userSpaceOnUse"><stop></stop><stop></stop><stop></stop></linearGradient><linearGradient id="__lottie_element_28361" spreadMethod="pad" gradientUnits="userSpaceOnUse"><stop></stop><stop></stop><stop></stop></linearGradient><linearGradient id="__lottie_element_28368" spreadMethod="pad" gradientUnits="userSpaceOnUse"><stop></stop><stop></stop><stop></stop><stop></stop><stop></stop></linearGradient><linearGradient id="__lottie_element_28372" spreadMethod="pad" gradientUnits="userSpaceOnUse"><stop></stop><stop></stop><stop></stop><stop></stop><stop></stop></linearGradient><linearGradient id="__lottie_element_28376" spreadMethod="pad" gradientUnits="userSpaceOnUse"><stop></stop><stop></stop><stop></stop></linearGradient><linearGradient id="__lottie_element_28384" spreadMethod="pad" gradientUnits="userSpaceOnUse" x1="-57.55699920654297" y1="-35.84299850463867" x2="5.224999904632568" y2="-0.13699999451637268"><stop offset="1%" stop-color="rgb(255,151,169)"></stop><stop offset="50%" stop-color="rgb(254,172,185)"></stop><stop offset="100%" stop-color="rgb(254,194,202)"></stop></linearGradient><linearGradient id="__lottie_element_28387" spreadMethod="pad" gradientUnits="userSpaceOnUse" x1="-5.744999885559082" y1="-1.9490000009536743" x2="80.7969970703125" y2="-68.12899780273438"><stop offset="0%" stop-color="rgb(254,194,202)"></stop><stop offset="61%" stop-color="rgb(254,224,228)"></stop><stop offset="100%" stop-color="rgb(255,255,255)"></stop></linearGradient><linearGradient id="__lottie_element_28391" spreadMethod="pad" gradientUnits="userSpaceOnUse" x1="-7.007999897003174" y1="39.54199981689453" x2="34.70399856567383" y2="27.075000762939453"><stop offset="1%" stop-color="rgb(255,151,169)"></stop><stop offset="40%" stop-color="rgb(254,172,185)"></stop><stop offset="80%" stop-color="rgb(254,194,202)"></stop><stop offset="90%" stop-color="rgb(254,209,215)"></stop><stop offset="100%" stop-color="rgb(255,225,229)"></stop></linearGradient><linearGradient id="__lottie_element_28395" spreadMethod="pad" gradientUnits="userSpaceOnUse" x1="-14.461000442504883" y1="33.159000396728516" x2="29.277000427246094" y2="24.243999481201172"><stop offset="1%" stop-color="rgb(255,151,169)"></stop><stop offset="39%" stop-color="rgb(254,172,185)"></stop><stop offset="77%" stop-color="rgb(254,194,202)"></stop><stop offset="89%" stop-color="rgb(254,209,215)"></stop><stop offset="100%" stop-color="rgb(255,225,229)"></stop></linearGradient><linearGradient id="__lottie_element_28399" spreadMethod="pad" gradientUnits="userSpaceOnUse" x1="-14.784000396728516" y1="90.03099822998047" x2="15.038999557495117" y2="-47.9010009765625"><stop offset="1%" stop-color="rgb(255,151,169)"></stop><stop offset="50%" stop-color="rgb(254,172,185)"></stop><stop offset="100%" stop-color="rgb(254,194,202)"></stop></linearGradient><linearGradient id="__lottie_element_28415" spreadMethod="pad" gradientUnits="userSpaceOnUse" x1="-13.788000106811523" y1="-8.942000389099121" x2="57.80099868774414" y2="93.13300323486328"><stop offset="0%" stop-color="rgb(255,204,0)"></stop><stop offset="32%" stop-color="rgb(255,204,0)"></stop><stop offset="100%" stop-color="rgb(255,204,0)"></stop></linearGradient><mask id="__lottie_element_28417"><path fill="url(#__lottie_element_28416)" d=" M-68.18900299072266,-51.854000091552734 C-106.04199981689453,3.8459999561309814 -106.1969985961914,69.74700164794922 -68.53800201416016,95.33899688720703 C-30.878000259399414,120.93199920654297 30.336000442504883,96.52400207519531 68.18800354003906,40.82400131225586 C106.04100036621094,-14.87600040435791 106.1969985961914,-80.7770004272461 68.53800201416016,-106.37000274658203 C58.388999938964844,-113.26599884033203 46.52399826049805,-116.53199768066406 33.87300109863281,-116.53299713134766 C-0.4230000078678131,-116.53600311279297 -40.5369987487793,-92.54499816894531 -68.18900299072266,-51.854000091552734z"></path></mask><linearGradient id="__lottie_element_28416" spreadMethod="pad" gradientUnits="userSpaceOnUse" x1="-13.788000106811523" y1="-8.942000389099121" x2="57.80099868774414" y2="93.13300323486328"><stop stop-color="rgb(255,255,255)" offset="0%" stop-opacity="0"></stop><stop stop-color="rgb(255,255,255)" offset="69%" stop-opacity="0.5"></stop><stop stop-color="rgb(255,255,255)" offset="100%" stop-opacity="1"></stop></linearGradient><linearGradient id="__lottie_element_28423" spreadMethod="pad" gradientUnits="userSpaceOnUse" x1="-38.21900177001953" y1="-23.849000930786133" x2="21.29599952697754" y2="46.604000091552734"><stop offset="0%" stop-color="rgb(191,89,104)"></stop><stop offset="32%" stop-color="rgb(184,76,92)"></stop><stop offset="100%" stop-color="rgb(176,63,80)"></stop></linearGradient><mask id="__lottie_element_28425"><path fill="url(#__lottie_element_28424)" d=" M-64.96399688720703,-93.60600280761719 C-64.96399688720703,-93.60600280761719 -117.41000366210938,-53.01599884033203 -104.17400360107422,-35.99700164794922 C-94.13500213623047,-23.09000015258789 -21.381999969482422,65.68399810791016 17.992000579833984,112.35700225830078 C17.992000579833984,112.35700225830078 102.0790023803711,112.35700225830078 102.0790023803711,112.35700225830078 C116.26300048828125,98.7959976196289 124.0009994506836,84.51699829101562 127.36599731445312,77.17500305175781 C127.36599731445312,77.17500305175781 127.36599731445312,68.27799987792969 127.36599731445312,68.27799987792969 C111.2249984741211,49.62799835205078 6.5289998054504395,-71.35299682617188 2.1659998893737793,-76.58699798583984 C-2.561000108718872,-82.26000213623047 -8.234000205993652,-83.20600128173828 -10.125,-104.9530029296875 C-10.593000411987305,-110.3290023803711 -14.1850004196167,-112.35399627685547 -19.322999954223633,-112.35399627685547 C-34.965999603271484,-112.35700225830078 -64.96399688720703,-93.60600280761719 -64.96399688720703,-93.60600280761719z"></path></mask><linearGradient id="__lottie_element_28424" spreadMethod="pad" gradientUnits="userSpaceOnUse" x1="-38.21900177001953" y1="-23.849000930786133" x2="21.29599952697754" y2="46.604000091552734"><stop stop-color="rgb(255,255,255)" offset="0%" stop-opacity="0.9900000095367432"></stop><stop stop-color="rgb(255,255,255)" offset="69%" stop-opacity="0.9950000047683716"></stop><stop stop-color="rgb(255,255,255)" offset="100%" stop-opacity="1"></stop></linearGradient><linearGradient id="__lottie_element_28428" spreadMethod="pad" gradientUnits="userSpaceOnUse" x1="-76.64700317382812" y1="96.07599639892578" x2="29.67099952697754" y2="37.020999908447266"><stop offset="0%" stop-color="rgb(255,255,255)"></stop><stop offset="32%" stop-color="rgb(182,182,255)"></stop><stop offset="100%" stop-color="rgb(108,108,255)"></stop></linearGradient><mask id="__lottie_element_28430"><path fill="url(#__lottie_element_28429)" d=" M-11.069999694824219,-25.840999603271484 C-51.72700119018555,7.250999927520752 -79.14600372314453,19.54199981689453 -95.22000122070312,12.92300033569336 C-95.22000122070312,12.92300033569336 42.50299835205078,171.67999267578125 42.50299835205078,171.67999267578125 C42.50299835205078,171.67999267578125 168.218994140625,171.67999267578125 168.218994140625,171.67999267578125 C168.218994140625,171.67999267578125 171.218994140625,71.46199798583984 171.218994140625,71.46199798583984 C171.218994140625,71.46199798583984 21.07699966430664,-80.68000030517578 21.07699966430664,-80.68000030517578 C21.07699966430664,-80.68000030517578 29.586000442504883,-58.933998107910156 -11.069999694824219,-25.840999603271484z"></path></mask><linearGradient id="__lottie_element_28429" spreadMethod="pad" gradientUnits="userSpaceOnUse" x1="-76.64700317382812" y1="96.07599639892578" x2="29.67099952697754" y2="37.020999908447266"><stop stop-color="rgb(255,255,255)" offset="0%" stop-opacity="0.9900000095367432"></stop><stop stop-color="rgb(255,255,255)" offset="69%" stop-opacity="0.9950000047683716"></stop><stop stop-color="rgb(255,255,255)" offset="100%" stop-opacity="1"></stop></linearGradient><linearGradient id="__lottie_element_28440" spreadMethod="pad" gradientUnits="userSpaceOnUse" x1="-4.361000061035156" y1="-34.46099853515625" x2="50.86600112915039" y2="-37.77799987792969"><stop offset="0%" stop-color="rgb(191,89,104)"></stop><stop offset="50%" stop-color="rgb(184,76,92)"></stop><stop offset="100%" stop-color="rgb(176,63,80)"></stop></linearGradient><linearGradient id="__lottie_element_28443" spreadMethod="pad" gradientUnits="userSpaceOnUse" x1="-30.222000122070312" y1="-41.67499923706055" x2="31.964000701904297" y2="16.94700050354004"><stop offset="0%" stop-color="rgb(230,127,104)"></stop><stop offset="29%" stop-color="rgb(210,108,104)"></stop><stop offset="66%" stop-color="rgb(191,89,104)"></stop></linearGradient><linearGradient id="__lottie_element_28447" spreadMethod="pad" gradientUnits="userSpaceOnUse" x1="-45.35599899291992" y1="28.093000411987305" x2="14.866000175476074" y2="57.4109992980957"><stop offset="1%" stop-color="rgb(220,118,104)"></stop><stop offset="13%" stop-color="rgb(206,104,104)"></stop><stop offset="25%" stop-color="rgb(191,89,104)"></stop><stop offset="58%" stop-color="rgb(184,76,92)"></stop><stop offset="90%" stop-color="rgb(176,63,80)"></stop></linearGradient><linearGradient id="__lottie_element_28451" spreadMethod="pad" gradientUnits="userSpaceOnUse" x1="-34.409000396728516" y1="43.16600036621094" x2="19.256000518798828" y2="54.83700180053711"><stop offset="1%" stop-color="rgb(220,118,104)"></stop><stop offset="13%" stop-color="rgb(206,104,104)"></stop><stop offset="25%" stop-color="rgb(191,89,104)"></stop><stop offset="58%" stop-color="rgb(184,76,92)"></stop><stop offset="90%" stop-color="rgb(176,63,80)"></stop></linearGradient><linearGradient id="__lottie_element_28455" spreadMethod="pad" gradientUnits="userSpaceOnUse" x1="-9.645000457763672" y1="-2.428999900817871" x2="14.659000396728516" y2="43.17900085449219"><stop offset="0%" stop-color="rgb(191,89,104)"></stop><stop offset="40%" stop-color="rgb(184,76,92)"></stop><stop offset="81%" stop-color="rgb(176,63,80)"></stop></linearGradient></defs><g clip-path="url(#__lottie_element_28181)"><g clip-path="url(#__lottie_element_28299)" transform="matrix(1,0,0,1,0,0)" opacity="1" style="display: block;"><g clip-path="url(#__lottie_element_28300)"><g style="display: none;"><g><path></path></g></g><g style="display: none;"><g><path></path></g></g><g style="display: none;"><g><path></path></g></g><g style="display: none;"><g><path></path></g></g><g transform="matrix(1,0,0,1,488.5080261230469,259.25299072265625)" opacity="1" style="display: block;"><g opacity="1" transform="matrix(1,0,0,1,106.4469985961914,124.4990005493164)"><path fill="rgb(255,204,0)" fill-opacity="1" d=" M-68.18900299072266,-44.141998291015625 C-106.04100036621094,11.557999610900879 -106.1969985961914,77.45899963378906 -68.53700256347656,103.0510025024414 C-30.878000259399414,128.6439971923828 30.336999893188477,104.23699951171875 68.18900299072266,48.5359992980957 C106.04100036621094,-7.164000034332275 106.1969985961914,-73.06500244140625 68.53800201416016,-98.65699768066406 C30.878000259399414,-124.2490005493164 -30.336999893188477,-99.84200286865234 -68.18900299072266,-44.141998291015625z"></path></g></g><g transform="matrix(1,0,0,1,505.3379821777344,342.43804931640625)" opacity="1" style="display: block;"><g opacity="1" transform="matrix(1,0,0,1,98.95600128173828,82.90599822998047)"><path fill="rgb(15,16,72)" fill-opacity="1" d=" M183.70599365234375,83.65599822998047 C183.70599365234375,83.65599822998047 24.3799991607666,-81.05599975585938 19.836999893188477,-81.85600280761719 C15.293999671936035,-82.65499877929688 -27.70599937438965,-75.65599822998047 -41.70600128173828,-63.65599822998047 C-55.70600128173828,-51.65599822998047 -91.39700317382812,-10.597000122070312 -95.0510025024414,-0.6259999871253967 C-98.70600128173828,9.345000267028809 -94.29399871826172,14.656000137329102 -78.29399871826172,26.6560001373291 C-61.323001861572266,39.38399887084961 86.70600128173828,197.656005859375 86.70600128173828,197.656005859375 C86.70600128173828,197.656005859375 183.70599365234375,83.65599822998047 183.70599365234375,83.65599822998047z"></path></g></g><g transform="matrix(1,0,0,1,494.8299865722656,329.884033203125)" opacity="1" style="display: block;"><g opacity="1" transform="matrix(1,0,0,1,74.48999786376953,63.356998443603516)"><path stroke-linecap="butt" stroke-linejoin="miter" fill-opacity="0" stroke-miterlimit="10" stroke="rgb(255,255,255)" stroke-opacity="1" stroke-width="2.828" d=" M-14.592000007629395,-18.889999389648438 C-47.375999450683594,6.434000015258789 -67.41999816894531,35.42100143432617 -59.36199951171875,45.85300064086914 C-51.303001403808594,56.2859992980957 -18.191999435424805,44.2140007019043 14.592000007629395,18.888999938964844 C47.375999450683594,-6.434999942779541 67.41999816894531,-35.422000885009766 59.361000061035156,-45.854000091552734 C51.303001403808594,-56.2869987487793 18.191999435424805,-44.2140007019043 -14.592000007629395,-18.889999389648438z"></path></g></g><g transform="matrix(1,0,0,1,503.8019714355469,342.44403076171875)" opacity="1" style="display: block;"><g opacity="1" transform="matrix(1,0,0,1,99.7239990234375,82.90299987792969)"><path fill="rgb(255,255,255)" fill-opacity="1" d=" M-3.377000093460083,-80.40599822998047 C-3.377000093460083,-80.40599822998047 3.5850000381469727,-82.65299987792969 7.367000102996826,-79.81700134277344 C11.14900016784668,-76.9800033569336 20.604000091552734,-66.58000183105469 20.604000091552734,-66.58000183105469 C20.604000091552734,-66.58000183105469 171.40499877929688,88.33000183105469 171.40499877929688,88.33000183105469 C171.40499877929688,88.33000183105469 135.4759979248047,138.44200134277344 135.4759979248047,138.44200134277344 C135.4759979248047,138.44200134277344 94.4739990234375,190.6529998779297 94.4739990234375,190.6529998779297 C94.4739990234375,190.6529998779297 -74.89099884033203,13.788000106811523 -74.89099884033203,13.788000106811523 C-75.83699798583984,12.842000007629395 -93.8010025024414,-5.122000217437744 -96.63800048828125,-7.959000110626221 C-99.4739990234375,-10.795000076293945 -94.74700164794922,-17.413999557495117 -94.74700164794922,-17.413999557495117 C-94.74700164794922,-17.413999557495117 -52.85900115966797,-69.88700103759766 -3.377000093460083,-80.40599822998047z"></path></g></g><g transform="matrix(1,0,0,1,442.8179931640625,150.7440185546875)" opacity="1" style="display: block;"><g opacity="1" transform="matrix(1,0,0,1,13.013999938964844,44.698001861572266)"><path fill="rgb(191,89,104)" fill-opacity="1" d=" M12.763999938964844,-8.5 C12.763999938964844,-8.5 11.411999702453613,-25.822999954223633 11.159000396728516,-30.815000534057617 C10.755999565124512,-38.75299835205078 -5.627999782562256,-44.448001861572266 -8.036999702453613,-29.301000595092773 C-10.446000099182129,-14.154000282287598 -12.763999938964844,17.860000610351562 -12.682999610900879,31.15399932861328 C-12.60099983215332,44.448001861572266 8.036999702453613,35.9379997253418 8.036999702453613,35.9379997253418 C8.036999702453613,35.9379997253418 12.763999938964844,-8.5 12.763999938964844,-8.5z"></path></g></g><g transform="matrix(1,0,0,1,460.25299072265625,116.51301574707031)" opacity="1" style="display: block;"><g opacity="1" transform="matrix(1,0,0,1,20.517000198364258,64.18900299072266)"><path fill="url(#__lottie_element_28455)" fill-opacity="1" d=" M-12.70199966430664,-53.79899978637695 C-20.267000198364258,-40.5629997253418 -13.538000106811523,-4.633999824523926 -13.538000106811523,1.9839999675750732 C-13.538000106811523,8.199000358581543 -15.710000038146973,42.48099899291992 -16.33799934387207,45.97600173950195 C-18.427000045776367,60.040000915527344 0.09200000017881393,63.93899917602539 0.09200000017881393,63.93899917602539 C7.308000087738037,61.888999938964844 18.20199966430664,56.180999755859375 20.016000747680664,55.21799850463867 C20.174999237060547,55.132999420166016 20.266000747680664,54.9630012512207 20.250999450683594,54.784000396728516 C20.250999450683594,54.784000396728516 9.529000282287598,-60.007999420166016 9.529000282287598,-60.007999420166016 C9.340999603271484,-62.20000076293945 7.531000137329102,-63.89500045776367 5.333000183105469,-63.935001373291016 C5.196000099182129,-63.9379997253418 5.057000160217285,-63.93899917602539 4.914999961853027,-63.93899917602539 C0.0689999982714653,-63.93899917602539 -7.765999794006348,-62.43899917602539 -12.70199966430664,-53.79899978637695z"></path><g opacity="1" transform="matrix(1,0,0,1,0,0)"></g></g></g><g transform="matrix(1,0,0,1,481.8279724121094,86.8740234375)" opacity="1" style="display: block;"><g opacity="1" transform="matrix(1,0,0,1,22.110000610351562,79.25800323486328)"><path fill="url(#__lottie_element_28451)" fill-opacity="1" d=" M-9.34000015258789,-59.084999084472656 C-9.34000015258789,-59.084999084472656 -14.069000244140625,1.4259999990463257 -13.12399959564209,6.1539998054504395 C-12.178000450134277,10.881999969482422 -21.861000061035156,72.66300201416016 -21.861000061035156,72.66300201416016 C-21.861000061035156,72.66300201416016 -18.077999114990234,77.11799621582031 -3.8959999084472656,78.06400299072266 C10.28600025177002,79.00900268554688 20.697999954223633,73.59600067138672 20.697999954223633,73.59600067138672 C20.697999954223633,73.59600067138672 21.861000061035156,-15.593000411987305 20.915000915527344,-30.72100067138672 C19.969999313354492,-45.8489990234375 20.915000915527344,-68.98300170898438 20.915000915527344,-70.43199920654297 C20.915000915527344,-71.88099670410156 17.132999420166016,-77.99500274658203 9.569999694824219,-78.94100189208984 C9.218999862670898,-78.98500061035156 8.859999656677246,-79.00599670410156 8.49899959564209,-79.00599670410156 C1.0980000495910645,-79.00800323486328 -8.005000114440918,-69.9469985961914 -9.34000015258789,-59.084999084472656z"></path><g opacity="1" transform="matrix(1,0,0,1,0,0)"></g></g></g><g transform="matrix(1,0,0,1,498.74896240234375,113.31901550292969)" opacity="1" style="display: block;"><g opacity="1" transform="matrix(1,0,0,1,28.96299934387207,62.70100021362305)"><path fill="url(#__lottie_element_28447)" fill-opacity="1" d=" M10.378000259399414,-62.35499954223633 C1.8680000305175781,-61.409000396728516 -11.369999885559082,-53.845001220703125 -11.369999885559082,-32.097999572753906 C-11.369999885559082,-10.35200023651123 -10.423999786376953,-3.7339999675750732 -10.423999786376953,2.884999990463257 C-10.423999786376953,9.503000259399414 -18.93400001525879,47.323001861572266 -18.93400001525879,47.323001861572266 C-18.93400001525879,47.323001861572266 -20.825000762939453,57.722999572753906 -20.825000762939453,57.722999572753906 C-20.825000762939453,57.722999572753906 -14.206000328063965,59.61399841308594 -14.206000328063965,59.61399841308594 C-14.206000328063965,59.61399841308594 -0.023000000044703484,62.45100021362305 5.650000095367432,61.50600051879883 C11.322999954223633,60.560001373291016 19.785999298095703,59.61399841308594 19.785999298095703,59.61399841308594 C19.785999298095703,59.61399841308594 20.73200035095215,4.943999767303467 20.777999877929688,-11.29699993133545 C20.825000762939453,-27.538999557495117 20.777999877929688,-50.59700012207031 20.777999877929688,-53.845001220703125 C20.777999877929688,-56.867000579833984 19.138999938964844,-62.45100021362305 12.057000160217285,-62.45100021362305 C11.527999877929688,-62.45100021362305 10.970000267028809,-62.41999816894531 10.378000259399414,-62.35499954223633z"></path><g opacity="1" transform="matrix(1,0,0,1,0,0)"></g></g></g><g transform="matrix(1,0,0,1,431.9439697265625,214.50302124023438)" opacity="1" style="display: block;"><g opacity="1" transform="matrix(1,0,0,1,56.034000396728516,68.22200012207031)"><path fill="url(#__lottie_element_28440)" fill-opacity="1" d=" M-44.35200119018555,-61.1619987487793 C-44.35200119018555,-61.1619987487793 -46.220001220703125,-53.4900016784668 -46.220001220703125,-33.6349983215332 C-46.220001220703125,-13.779000282287598 -50.11199951171875,-14.942000389099121 -52.946998596191406,15.314000129699707 C-55.784000396728516,45.56999969482422 -45.35900115966797,52.05500030517578 -40.70800018310547,59.5890007019043 C-35.766998291015625,67.59400177001953 -15.803999900817871,79.66799926757812 -15.803999900817871,79.66799926757812 C-15.803999900817871,79.66799926757812 43.01100158691406,67.97200012207031 43.01100158691406,67.97200012207031 C43.01100158691406,67.97200012207031 53.917999267578125,28.076000213623047 53.917999267578125,28.076000213623047 C53.917999267578125,28.076000213623047 55.784000396728516,-55.599998474121094 55.784000396728516,-55.599998474121094 C55.784000396728516,-55.599998474121094 23.63800048828125,-66.94400024414062 10.401000022888184,-67.88999938964844 C9.631999969482422,-67.94499969482422 8.770999908447266,-67.97200012207031 7.826000213623047,-67.97200012207031 C-7.513999938964844,-67.97100067138672 -44.35200119018555,-61.1619987487793 -44.35200119018555,-61.1619987487793z"></path><g opacity="1" transform="matrix(1,0,0,1,0,0)"></g></g><g opacity="1" transform="matrix(1,0,0,1,60.643001556396484,11.685999870300293)"><path fill="rgb(167,46,64)" fill-opacity="1" d=" M-36.5,9 C-36.5,9 -0.5,-5 36.5,7 C36.5,7 -0.5,-9 -36.5,9z"></path></g></g><g transform="matrix(1,0,0,1,448.0179748535156,283.0370178222656)" opacity="1" style="display: block;"><g opacity="1" transform="matrix(1,0,0,1,127.61599731445312,112.60600280761719)"><path fill="url(#__lottie_element_28423)" mask="url(#__lottie_element_28425)" fill-opacity="1" d="M0 0 M-64.96399688720703,-93.60600280761719 C-64.96399688720703,-93.60600280761719 -117.41000366210938,-53.01599884033203 -104.17400360107422,-35.99700164794922 C-94.13500213623047,-23.09000015258789 -21.381999969482422,65.68399810791016 17.992000579833984,112.35700225830078 C17.992000579833984,112.35700225830078 102.0790023803711,112.35700225830078 102.0790023803711,112.35700225830078 C116.26300048828125,98.7959976196289 124.0009994506836,84.51699829101562 127.36599731445312,77.17500305175781 C127.36599731445312,77.17500305175781 127.36599731445312,68.27799987792969 127.36599731445312,68.27799987792969 C111.2249984741211,49.62799835205078 6.5289998054504395,-71.35299682617188 2.1659998893737793,-76.58699798583984 C-2.561000108718872,-82.26000213623047 -8.234000205993652,-83.20600128173828 -10.125,-104.9530029296875 C-10.593000411987305,-110.3290023803711 -14.1850004196167,-112.35399627685547 -19.322999954223633,-112.35399627685547 C-34.965999603271484,-112.35700225830078 -64.96399688720703,-93.60600280761719 -64.96399688720703,-93.60600280761719z"></path><g opacity="1" transform="matrix(1,0,0,1,0,0)"></g></g></g><g transform="matrix(1,0,0,1,494.8199768066406,165.8720245361328)" opacity="1" style="display: block;"><g opacity="1" transform="matrix(1,0,0,1,35.70600128173828,78.26300048828125)"><path fill="url(#__lottie_element_28443)" fill-opacity="1" d=" M20.327999114990234,-77.99400329589844 C9.928000450134277,-77.50599670410156 -10.87399959564209,-65.7030029296875 2.36299991607666,-12.755000114440918 C2.36299991607666,-12.755000114440918 -35.45600128173828,8.045999526977539 -34.51100158691406,35.46500015258789 C-33.566001892089844,62.8849983215332 -16.547000885009766,78.01300048828125 7.091000080108643,76.12200164794922 C15.574000358581543,75.44300079345703 35.45600128173828,65.72200012207031 35.45600128173828,45.86600112915039 C35.45600128173828,45.86600112915039 35.45600128173828,-69.48500061035156 35.45600128173828,-69.48500061035156 C35.45600128173828,-69.48500061035156 30.974000930786133,-78.01300048828125 21.139999389648438,-78.01300048828125 C20.87299919128418,-78.01300048828125 20.60300064086914,-78.00700378417969 20.327999114990234,-77.99400329589844z"></path><g opacity="1" transform="matrix(1,0,0,1,0,0)"></g></g></g><g transform="matrix(1,0,0,1,503.80096435546875,342.44403076171875)" opacity="1" style="display: block;"><g opacity="1" transform="matrix(1,0,0,1,99.7239990234375,82.90299987792969)"><path fill="rgb(255,255,255)" fill-opacity="1" d=" M-74.89099884033203,13.788000106811523 C-75.83599853515625,12.843000411987305 -93.8010025024414,-5.122000217437744 -96.63700103759766,-7.958000183105469 C-99.4739990234375,-10.795000076293945 -94.74600219726562,-17.413000106811523 -94.74600219726562,-17.413000106811523 C-94.74600219726562,-17.413000106811523 -89.072998046875,-11.739999771118164 -89.072998046875,-11.739999771118164 C-89.072998046875,-11.739999771118164 -59.76300048828125,-11.739999771118164 -28.562000274658203,-36.323001861572266 C2.640000104904175,-60.90599822998047 1.718999981880188,-74.14299774169922 1.718999981880188,-74.14299774169922 C1.718999981880188,-74.14299774169922 -3.377000093460083,-80.40599822998047 -3.377000093460083,-80.40599822998047 C-3.377000093460083,-80.40599822998047 3.5850000381469727,-82.65299987792969 7.367000102996826,-79.81600189208984 C11.14900016784668,-76.9800033569336 20.604000091552734,-66.5790023803711 20.604000091552734,-66.5790023803711 C20.604000091552734,-66.5790023803711 171.40499877929688,88.33100128173828 171.40499877929688,88.33100128173828 C171.40499877929688,88.33100128173828 135.4759979248047,138.44200134277344 135.4759979248047,138.44200134277344 C135.4759979248047,138.44200134277344 94.4739990234375,190.6529998779297 94.4739990234375,190.6529998779297 C94.4739990234375,190.6529998779297 -74.89099884033203,13.788000106811523 -74.89099884033203,13.788000106811523z"></path></g></g><g transform="matrix(1,0,0,1,512.3109741210938,346.3900451660156)" opacity="1" style="display: block;"><g opacity="1" transform="matrix(1,0,0,1,95.46900177001953,80.93000030517578)"><path fill="url(#__lottie_element_28428)" mask="url(#__lottie_element_28430)" fill-opacity="1" d="M0 0 M-11.069999694824219,-25.840999603271484 C-51.72700119018555,7.250999927520752 -79.14600372314453,19.54199981689453 -95.22000122070312,12.92300033569336 C-95.22000122070312,12.92300033569336 42.50299835205078,171.67999267578125 42.50299835205078,171.67999267578125 C42.50299835205078,171.67999267578125 168.218994140625,171.67999267578125 168.218994140625,171.67999267578125 C168.218994140625,171.67999267578125 171.218994140625,71.46199798583984 171.218994140625,71.46199798583984 C171.218994140625,71.46199798583984 21.07699966430664,-80.68000030517578 21.07699966430664,-80.68000030517578 C21.07699966430664,-80.68000030517578 29.586000442504883,-58.933998107910156 -11.069999694824219,-25.840999603271484z"></path><g opacity="1" transform="matrix(1,0,0,1,0,0)"></g></g><g opacity="1" transform="matrix(1,0,0,1,61.0260009765625,134.0489959716797)"><path stroke-linecap="butt" stroke-linejoin="miter" fill-opacity="0" stroke-miterlimit="10" stroke="rgb(255,255,255)" stroke-opacity="1" stroke-width="3.333" d=" M8.75,0 C8.75,4.831999778747559 4.831999778747559,8.75 0,8.75 C-4.831999778747559,8.75 -8.75,4.831999778747559 -8.75,0 C-8.75,-4.831999778747559 -4.831999778747559,-8.75 0,-8.75 C4.831999778747559,-8.75 8.75,-4.831999778747559 8.75,0z"></path></g><g opacity="1" transform="matrix(1,0,0,1,123.5260009765625,117.54900360107422)"><path stroke-linecap="round" stroke-linejoin="miter" fill-opacity="0" stroke-miterlimit="10" stroke="rgb(255,255,255)" stroke-opacity="1" stroke-width="5" d=" M-60.25,47.75 C-60.25,47.75 -24.75,51.25 18.64900016784668,13.755000114440918 C55.12799835205078,-17.761999130249023 60.25,-50.75 59.75,-51.25"></path></g></g><g transform="matrix(1,0,0,1,499.2239685058594,329.884033203125)" opacity="1" style="display: block;"><g opacity="1" transform="matrix(1,0,0,1,72.29299926757812,63.356998443603516)"><path stroke-linecap="butt" stroke-linejoin="miter" fill-opacity="0" stroke-miterlimit="10" stroke="rgb(255,255,255)" stroke-opacity="1" stroke-width="2.828" d=" M-56.55799865722656,22.19300079345703 C-63.07400131225586,32.525001525878906 -65.2229995727539,41.108001708984375 -61.55799865722656,45.85300064086914 C-53.499000549316406,56.2859992980957 -20.388999938964844,44.2140007019043 12.395000457763672,18.888999938964844 C45.17900085449219,-6.434999942779541 65.2229995727539,-35.422000885009766 57.16400146484375,-45.854000091552734 C53.37900161743164,-50.75400161743164 44.06700134277344,-50.68899917602539 31.857999801635742,-46.61800003051758 C31.715999603271484,-46.57099914550781 49.625,-52.86800003051758 55.869998931884766,-47.819000244140625 C62.78799819946289,-42.22600173950195 55.89899826049805,-27.89299964904785 55.382999420166016,-26.88599967956543 C49.255001068115234,-14.927000045776367 27.885000228881836,7.177000045776367 13.090999603271484,18.69300079345703 C-0.2680000066757202,29.090999603271484 -46.327999114990234,59.29100036621094 -60.93000030517578,45.90599822998047 C-69.27400207519531,38.25699996948242 -56.374000549316406,21.900999069213867 -56.55799865722656,22.19300079345703z"></path></g></g><g transform="matrix(1,0,0,1,489.5080261230469,274.677978515625)" opacity="1" style="display: block;"><g opacity="1" transform="matrix(1,0,0,1,106.4469985961914,116.78600311279297)"><path fill="url(#__lottie_element_28415)" mask="url(#__lottie_element_28417)" fill-opacity="1" d="M0 0 M-68.18900299072266,-51.854000091552734 C-106.04199981689453,3.8459999561309814 -106.1969985961914,69.74700164794922 -68.53800201416016,95.33899688720703 C-30.878000259399414,120.93199920654297 30.336000442504883,96.52400207519531 68.18800354003906,40.82400131225586 C106.04100036621094,-14.87600040435791 106.1969985961914,-80.7770004272461 68.53800201416016,-106.37000274658203 C58.388999938964844,-113.26599884033203 46.52399826049805,-116.53199768066406 33.87300109863281,-116.53299713134766 C-0.4230000078678131,-116.53600311279297 -40.5369987487793,-92.54499816894531 -68.18900299072266,-51.854000091552734z"></path><g opacity="1" transform="matrix(1,0,0,1,0,0)"></g></g></g><g transform="matrix(1,0,0,1,103.69300842285156,258.7960205078125)" opacity="1" style="display: block;"><g opacity="1" transform="matrix(1,0,0,1,130.7239990234375,130.48199462890625)"><path fill="rgb(0,204,111)" fill-opacity="1" d=" M-14.444000244140625,-130.23199462890625 C-14.444000244140625,-130.23199462890625 40.236000061035156,-58.382999420166016 40.236000061035156,-58.382999420166016 C40.236000061035156,-58.382999420166016 130.4739990234375,-55.31700134277344 130.4739990234375,-55.31700134277344 C130.4739990234375,-55.31700134277344 79.03800201416016,18.888999938964844 79.03800201416016,18.888999938964844 C79.03800201416016,18.888999938964844 104.00700378417969,105.65799713134766 104.00700378417969,105.65799713134766 C104.00700378417969,105.65799713134766 17.538000106811523,79.6709976196289 17.538000106811523,79.6709976196289 C17.538000106811523,79.6709976196289 -57.268001556396484,130.2310028076172 -57.268001556396484,130.2310028076172 C-57.268001556396484,130.2310028076172 -59.27299880981445,39.9630012512207 -59.27299880981445,39.9630012512207 C-59.27299880981445,39.9630012512207 -130.4739990234375,-15.557000160217285 -130.4739990234375,-15.557000160217285 C-130.4739990234375,-15.557000160217285 -45.244998931884766,-45.358001708984375 -45.244998931884766,-45.358001708984375 C-45.244998931884766,-45.358001708984375 -14.444000244140625,-130.23199462890625 -14.444000244140625,-130.23199462890625z"></path></g></g><g style="display: none;"><g><path></path><path stroke-linecap="butt" stroke-linejoin="miter" fill-opacity="0" stroke-miterlimit="4"></path></g></g><g transform="matrix(0.9998477101325989,-0.017452405765652657,0.017452405765652657,0.9998477101325989,87.46724700927734,333.56854248046875)" opacity="1" style="display: block;"><g opacity="1" transform="matrix(1,0,0,1,117.1729965209961,117.21800231933594)"><path fill="rgb(15,16,72)" fill-opacity="1" d=" M75.89099884033203,-86.96800231933594 C47.89099884033203,-109.96800231933594 25.29400062561035,-116.96800231933594 15.890999794006348,-114.96800231933594 C14.432000160217285,-114.65799713134766 13.140000343322754,-113.8949966430664 11.99899959564209,-112.83100128173828 C12.026000022888184,-112.89800262451172 12.048999786376953,-112.96499633789062 12.076000213623047,-113.03199768066406 C12.076000213623047,-113.03199768066406 -116.9229965209961,28.968000411987305 -116.9229965209961,28.968000411987305 C-116.9229965209961,28.968000411987305 -90.9229965209961,87.96800231933594 -90.9229965209961,87.96800231933594 C-90.9229965209961,87.96800231933594 -47.92399978637695,116.96800231933594 -47.92399978637695,116.96800231933594 C-47.92399978637695,116.96800231933594 -46.92399978637695,112.96800231933594 -46.92399978637695,112.96800231933594 C-46.92399978637695,112.96800231933594 99.80799865722656,-29.770999908447266 99.80799865722656,-29.770999908447266 C116.92400360107422,-41.106998443603516 99.177001953125,-67.83999633789062 75.89099884033203,-86.96800231933594z"></path></g></g><g transform="matrix(0.7784376740455627,0.6766855120658875,-0.5145930051803589,0.5919715762138367,250.375732421875,283.68695068359375)" opacity="1" style="display: block;"><g opacity="1" transform="matrix(1,0,0,1,64.00399780273438,55.65999984741211)"><path stroke-linecap="butt" stroke-linejoin="miter" fill-opacity="0" stroke-miterlimit="4" stroke="rgb(108,108,255)" stroke-opacity="1" stroke-width="5" d=" M0,-39.58399963378906 C28.85300064086914,-39.58399963378906 51.612998962402344,-16.49799919128418 51.612998962402344,5.363999843597412 C51.612998962402344,27.22599983215332 28.117000579833984,47.974998474121094 -1.0190000534057617,45.816001892089844 C-40.67599868774414,42.87699890136719 -52.87799835205078,20.899999618530273 -52.87799835205078,-0.9620000123977661 C-52.87799835205078,-22.823999404907227 -28.85300064086914,-39.58399963378906 0,-39.58399963378906z"></path></g></g><g transform="matrix(1,0,0,1,350.5710144042969,160.09701538085938)" opacity="1" style="display: block;"><g opacity="1" transform="matrix(1,0,0,1,13.472999572753906,49.198001861572266)"><path fill="rgb(254,194,202)" fill-opacity="1" d=" M-13.222999572753906,-13.486000061035156 C-13.222999572753906,-13.486000061035156 -9.29800033569336,-32.71099853515625 -8.993000030517578,-37.70000076293945 C-8.687000274658203,-42.68899917602539 6.089000225067139,-48.948001861572266 8.107000350952148,-33.74399948120117 C10.125,-18.540000915527344 13.222999572753906,22.37299919128418 12.79800033569336,35.65999984741211 C12.37399959564209,48.948001861572266 -9.036999702453613,39.882999420166016 -9.036999702453613,39.882999420166016 C-9.036999702453613,39.882999420166016 -13.222999572753906,-13.486000061035156 -13.222999572753906,-13.486000061035156z"></path></g></g><g transform="matrix(1,0,0,1,318.93798828125,124.93099975585938)" opacity="1" style="display: block;"><g opacity="1" transform="matrix(1,0,0,1,20.214000701904297,64.63700103759766)"><path fill="url(#__lottie_element_28399)" fill-opacity="1" d=" M-5.633999824523926,-64.38300323486328 C-7.504000186920166,-64.3499984741211 -9.045000076293945,-62.91899871826172 -9.234000205993652,-61.058998107910156 C-9.234000205993652,-61.058998107910156 -19.964000701904297,52.566001892089844 -19.964000701904297,52.566001892089844 C-19.964000701904297,52.566001892089844 -7.8460001945495605,59.49800109863281 -0.013000000268220901,61.94300079345703 C7.820000171661377,64.38700103759766 17.839000701904297,60.27000045776367 17.839000701904297,60.27000045776367 C17.839000701904297,60.27000045776367 13.972000122070312,8.663999557495117 14.142000198364258,2.0490000247955322 C14.312000274658203,-4.567999839782715 19.96299934387207,-40.362998962402344 12.741999626159668,-53.79100036621094 C7.828999996185303,-62.928001403808594 -0.43299999833106995,-64.38700103759766 -5.210000038146973,-64.38700103759766 C-5.355000019073486,-64.38700103759766 -5.495999813079834,-64.38600158691406 -5.633999824523926,-64.38300323486328z"></path><g opacity="1" transform="matrix(1,0,0,1,0,0)"></g></g></g><g transform="matrix(1,0,0,1,291.27801513671875,94.64401245117188)" opacity="1" style="display: block;"><g opacity="1" transform="matrix(1,0,0,1,21.534000396728516,74.70700073242188)"><path fill="url(#__lottie_element_28395)" fill-opacity="1" d=" M-4.317999839782715,-74.41500091552734 C-11.904000282287598,-73.66400146484375 -15.843000411987305,-67.64900207519531 -15.880000114440918,-66.20099639892578 C-15.916999816894531,-64.75299835205078 -15.567999839782715,-41.60200119018555 -16.902999877929688,-26.503000259399414 C-18.238000869750977,-11.404000282287598 -21.284000396728516,68.7770004272461 -21.284000396728516,68.7770004272461 C-21.284000396728516,68.7770004272461 -11.015999794006348,74.45700073242188 3.186000108718872,73.87699890136719 C17.38800048828125,73.2969970703125 21.284000396728516,68.94100189208984 21.284000396728516,68.94100189208984 C21.284000396728516,68.94100189208984 15.107000350952148,15.937999725341797 16.173999786376953,11.236000061035156 C17.240999221801758,6.534999847412109 14.074000358581543,-54.08000183105469 14.074000358581543,-54.08000183105469 C13.008000373840332,-65.08599853515625 3.9660000801086426,-74.45700073242188 -3.4769999980926514,-74.45600128173828 C-3.759999990463257,-74.45600128173828 -4.040999889373779,-74.44300079345703 -4.317999839782715,-74.41500091552734z"></path><g opacity="1" transform="matrix(1,0,0,1,0,0)"></g></g></g><g transform="matrix(1,0,0,1,270.9029846191406,120.37300109863281)" opacity="1" style="display: block;"><g opacity="1" transform="matrix(1,0,0,1,20.746999740600586,69.37100219726562)"><path fill="url(#__lottie_element_28391)" fill-opacity="1" d=" M-19.02899932861328,-60.737998962402344 C-19.113000869750977,-57.4900016784668 -19.753000259399414,-34.441001892089844 -20.125999450683594,-18.204999923706055 C-20.496999740600586,-1.9670000076293945 -20.148000717163086,65.7750015258789 -20.148000717163086,65.7750015258789 C-20.148000717163086,65.7750015258789 -11.711999893188477,66.93800354003906 -6.065999984741211,68.02999877929688 C-0.4180000126361847,69.12100219726562 13.831999778747559,66.6510009765625 13.831999778747559,66.6510009765625 C13.831999778747559,66.6510009765625 20.496999740600586,64.93099975585938 20.496999740600586,64.93099975585938 C20.496999740600586,64.93099975585938 18.875,54.48500061035156 18.875,54.48500061035156 C18.875,54.48500061035156 10.529999732971191,3.3940000534057617 10.699999809265137,-3.2219998836517334 C10.871000289916992,-9.83899974822998 11.986000061035156,-16.430999755859375 12.54699993133545,-38.16999816894531 C13.107000350952148,-59.90999984741211 0.07000000029802322,-67.81199645996094 -8.413000106811523,-68.97599792480469 C-9.130000114440918,-69.07499694824219 -9.800999641418457,-69.12100219726562 -10.428999900817871,-69.12100219726562 C-17.226999282836914,-69.12000274658203 -18.952999114990234,-63.709999084472656 -19.02899932861328,-60.737998962402344z"></path><g opacity="1" transform="matrix(1,0,0,1,0,0)"></g></g></g><g transform="matrix(1,0,0,1,274.10400390625,222.64599609375)" opacity="1" style="display: block;"><g opacity="1" transform="matrix(1,0,0,1,54.358001708984375,67.75299835205078)"><path fill="url(#__lottie_element_28384)" fill-opacity="1" d=" M-8.133000373840332,-67.4729995727539 C-21.389999389648438,-66.86900329589844 -53.819000244140625,-56.35599899291992 -53.819000244140625,-56.35599899291992 C-53.819000244140625,-56.35599899291992 -54.108001708984375,27.341999053955078 -54.108001708984375,27.341999053955078 C-54.108001708984375,27.341999053955078 -44.233001708984375,67.50299835205078 -44.233001708984375,67.50299835205078 C-44.233001708984375,67.50299835205078 -2.371000051498413,75.26499938964844 -2.371000051498413,75.26499938964844 C-2.371000051498413,75.26499938964844 19.420000076293945,64.80000305175781 29.976999282836914,60.13800048828125 C40.10900115966797,55.665000915527344 54.108001708984375,47.62799835205078 52.053001403808594,17.30900001525879 C49.99599838256836,-13.01099967956543 47.17900085449219,-15.920000076293945 47.689998626708984,-35.76900100708008 C48.20100021362305,-55.61800003051758 47.426998138427734,-59.310001373291016 47.426998138427734,-59.310001373291016 C47.426998138427734,-59.310001373291016 7.89900016784668,-67.50199890136719 -6.7129998207092285,-67.50299835205078 C-7.2179999351501465,-67.50299835205078 -7.690999984741211,-67.49299621582031 -8.133000373840332,-67.4729995727539z"></path><g opacity="1" transform="matrix(1,0,0,1,0,0)"></g></g><g opacity="1" transform="matrix(1,0,0,1,51.51599884033203,12.255999565124512)"><path fill="rgb(255,152,170)" fill-opacity="1" d=" M36.46200180053711,9.460000038146973 C36.46200180053711,9.460000038146973 0.8349999785423279,-5.461999893188477 -36.46200180053711,5.580999851226807 C-36.46200180053711,5.580999851226807 0.9380000233650208,-9.461000442504883 36.46200180053711,9.460000038146973z"></path></g></g><g transform="matrix(1,0,0,1,250.05099487304688,172.60000610351562)" opacity="1" style="display: block;"><g opacity="1" transform="matrix(1,0,0,1,36.4370002746582,78.72599792480469)"><path fill="url(#__lottie_element_28387)" fill-opacity="1" d=" M-32.70500183105469,-70.31300354003906 C-32.70500183105469,-70.31300354003906 -35.165000915527344,25.152000427246094 -35.67599868774414,45 C-36.1870002746582,64.8489990234375 -16.562000274658203,75.08000183105469 -8.100000381469727,75.97599792480469 C15.480999946594238,78.47599792480469 32.88399887084961,63.79100036621094 34.5359992980957,36.404998779296875 C36.1870002746582,9.019000053405762 -1.0850000381469727,-12.74899959564209 -1.0850000381469727,-12.74899959564209 C13.51200008392334,-65.33799743652344 -6.979000091552734,-77.6729965209961 -17.363000869750977,-78.42900085449219 C-17.78700065612793,-78.45999908447266 -18.201000213623047,-78.47599792480469 -18.60700035095215,-78.47599792480469 C-28.14299964904785,-78.47599792480469 -32.70500183105469,-70.31300354003906 -32.70500183105469,-70.31300354003906z"></path><g opacity="1" transform="matrix(1,0,0,1,0,0)"></g></g></g><g style="display: none;"><g><path></path></g></g><g style="display: none;"><g><path fill="url(#__lottie_element_28376)"></path><g></g></g></g><g style="display: none;"><g><path fill="url(#__lottie_element_28372)"></path><g></g></g></g><g style="display: none;"><g><path fill="url(#__lottie_element_28368)"></path><g></g></g></g><g style="display: none;"><g><path fill="url(#__lottie_element_28358)"></path><g></g></g><g><path></path></g></g><g style="display: none;"><g><path></path><path stroke-linecap="butt" stroke-linejoin="miter" fill-opacity="0" stroke-miterlimit="4"></path></g></g><g style="display: none;"><g><path fill="url(#__lottie_element_28361)"></path><g></g></g></g><g transform="matrix(1,0,0,1,31.37200164794922,287.46600341796875)" opacity="1" style="display: block;"><g opacity="1" transform="matrix(1,0,0,1,183.43899536132812,120.86699676513672)"><path fill="rgb(254,194,202)" fill-opacity="1" d=" M-183.18899536132812,131.38299560546875 C-183.18899536132812,131.38299560546875 36.81100082397461,-104.61699676513672 36.81100082397461,-104.61699676513672 C36.81100082397461,-104.61699676513672 70.77799987792969,-120.61699676513672 96.79499816894531,-104.61699676513672 C122.81099700927734,-88.61699676513672 124.81099700927734,-60.617000579833984 124.81099700927734,-60.617000579833984 C124.81099700927734,-60.617000579833984 -96.18900299072266,222.38299560546875 -96.18900299072266,222.38299560546875 C-96.18900299072266,222.38299560546875 -170.23699951171875,219.38299560546875 -183.18899536132812,131.38299560546875z"></path></g></g><g style="display: none;"><g><path></path></g><g><path></path></g></g><g style="display: none;"><g><path fill="url(#__lottie_element_28353)"></path></g></g><g style="display: none;"><g><path fill="url(#__lottie_element_28349)"></path></g></g><g style="display: none;"><g><path fill="url(#__lottie_element_28345)"></path></g></g><g style="display: none;"><g><path fill="url(#__lottie_element_28341)"></path></g></g><g style="display: none;"><g><path></path></g></g><g transform="matrix(0.9998477101325989,-0.017452405765652657,0.017452405765652657,0.9998477101325989,88.52818298339844,337.0505676269531)" opacity="1" style="display: block;"><g opacity="1" transform="matrix(1,0,0,1,108.75,115.25)"><path fill="rgb(15,16,72)" fill-opacity="1" d=" M-34.60499954223633,117.06900024414062 C-34.60499954223633,117.06900024414062 108.5,-32 108.5,-32 C108.5,-32 71.5,-27 44.5,-52 C17.5,-77 12.5,-95 20.5,-115 C20.5,-115 -112.4990005493164,26.93000030517578 -112.4990005493164,26.93000030517578 C-112.4990005493164,26.93000030517578 -82.5,86 -82.5,86 C-82.5,86 -39.5,115 -39.5,115"></path></g></g><g mask="url(#__lottie_element_28323)" style="display: block;"><g transform="matrix(0.9998477101325989,-0.017452405765652657,0.017452405765652657,0.9998477101325989,23.159183502197266,259.1795654296875)" opacity="1"><g opacity="1" transform="matrix(1,0,0,1,159.7790069580078,196.5679931640625)"><path fill="rgb(108,108,255)" fill-opacity="1" d=" M21.572999954223633,9.319999694824219 C20.93899917602539,-0.7429999709129333 18.15399932861328,-7.9730000495910645 15.015999794006348,-13.027000427246094 C14.909000396728516,-13.27299976348877 14.782999992370605,-13.515999794006348 14.63700008392334,-13.755999565124512 C10.67199993133545,-20.231000900268555 3.2909998893737793,-27.124000549316406 -5.589000225067139,-27.124000549316406 C-14.468999862670898,-27.124000549316406 -21.66699981689453,-19.926000595092773 -21.66699981689453,-11.045999526977539 C-21.66699981689453,-5.322999954223633 -18.667999267578125,-0.31200000643730164 -14.164999961853027,2.5380001068115234 C-14.097000122070312,2.6070001125335693 -14.032999992370605,2.674999952316284 -13.956999778747559,2.74399995803833 C-11.543999671936035,4.921000003814697 -10.744000434875488,8.814000129699707 -10.47599983215332,11.272000312805176 C-10.468000411987305,11.878999710083008 -10.42199993133545,12.47599983215332 -10.347999572753906,13.064000129699707 C-10.34000015258789,13.336000442504883 -10.340999603271484,13.501999855041504 -10.340999603271484,13.501999855041504 C-10.340999603271484,13.501999855041504 -10.281000137329102,13.49899959564209 -10.281000137329102,13.49899959564209 C-9.097999572753906,21.211000442504883 -2.453000068664551,27.124000549316406 5.590000152587891,27.124000549316406 C14.470000267028809,27.124000549316406 21.66699981689453,19.924999237060547 21.66699981689453,11.045999526977539 C21.66699981689453,10.461999893188477 21.634000778198242,9.88700008392334 21.572999954223633,9.319999694824219z"></path></g><g opacity="1" transform="matrix(1,0,0,1,331.2879943847656,169.40899658203125)"><path fill="rgb(108,108,255)" fill-opacity="1" d=" M23.542999267578125,-5.826000213623047 C23.1560001373291,-6.263000011444092 22.749000549316406,-6.670000076293945 22.32699966430664,-7.053999900817871 C15.178000450134277,-14.164999961853027 8.300000190734863,-17.729999542236328 2.5989999771118164,-19.430999755859375 C2.3559999465942383,-19.54400062561035 2.0999999046325684,-19.642000198364258 1.8309999704360962,-19.724000930786133 C-5.429999828338623,-21.94099998474121 -15.527000427246094,-22.204999923706055 -22.17300033569336,-16.31599998474121 C-28.819000244140625,-10.425999641418457 -29.43199920654297,-0.26499998569488525 -23.542999267578125,6.38100004196167 C-19.733999252319336,10.678999900817871 -14.140999794006348,12.437000274658203 -8.866000175476074,11.562000274658203 C-8.781999588012695,11.567000389099121 -8.713000297546387,11.588000297546387 -8.62600040435791,11.58899974822998 C-5.375999927520752,11.618000030517578 -2.196000099182129,13.99899959564209 -0.3659999966621399,15.661999702453613 C0.0430000014603138,16.111000061035156 0.4740000069141388,16.525999069213867 0.9200000166893005,16.917999267578125 C1.1059999465942383,17.117000579833984 1.215999960899353,17.242000579833984 1.215999960899353,17.242000579833984 C1.215999960899353,17.242000579833984 1.2569999694824219,17.198999404907227 1.2569999694824219,17.198999404907227 C7.257999897003174,22.187000274658203 16.152999877929688,22.204999923706055 22.17300033569336,16.871000289916992 C28.819000244140625,10.980999946594238 29.43199920654297,0.8199999928474426 23.542999267578125,-5.826000213623047z"></path></g><g opacity="1" transform="matrix(1,0,0,1,170.7830047607422,139.01300048828125)"><path fill="rgb(108,108,255)" fill-opacity="1" d=" M20.503000259399414,-18.854000091552734 C15.895000457763672,-26.444000244140625 6.00600004196167,-28.86199951171875 -1.5839999914169312,-24.253999710083008 C-2.0829999446868896,-23.951000213623047 -2.555999994277954,-23.62299919128418 -3.009999990463257,-23.277000427246094 C-11.282999992370605,-17.51300048828125 -16.018999099731445,-11.380999565124512 -18.709999084472656,-6.076000213623047 C-18.864999771118164,-5.85699987411499 -19.006999969482422,-5.622000217437744 -19.13599967956543,-5.372000217437744 C-22.613000869750977,1.3760000467300415 -24.676000595092773,11.263999938964844 -20.06800079345703,18.854000091552734 C-15.460000038146973,26.44499969482422 -5.571000099182129,28.86199951171875 2.0199999809265137,24.253999710083008 C6.927999973297119,21.274999618530273 9.656000137329102,16.084999084472656 9.73799991607666,10.73900032043457 C9.758000373840332,10.656999588012695 9.789999961853027,10.593000411987305 9.807000160217285,10.506999969482422 C10.416000366210938,7.315000057220459 13.32699966430664,4.611000061035156 15.289999961853027,3.1070001125335693 C15.803999900817871,2.7850000858306885 16.290000915527344,2.434999942779541 16.7549991607666,2.066999912261963 C16.982999801635742,1.9190000295639038 17.125999450683594,1.8329999446868896 17.125999450683594,1.8329999446868896 C17.125999450683594,1.8329999446868896 17.091999053955078,1.784000039100647 17.091999053955078,1.784000039100647 C23.070999145507812,-3.2300000190734863 24.677000045776367,-11.977999687194824 20.503000259399414,-18.854000091552734z"></path></g><g opacity="1" transform="matrix(1,0,0,1,47.83000183105469,236.9199981689453)"><path fill="rgb(108,108,255)" fill-opacity="1" d=" M19.868000030517578,0.9919999837875366 C21.77899932861328,-6.355999946594238 21.6200008392334,-16.454999923706055 15.456999778747559,-22.847999572753906 C9.295000076293945,-29.242000579833984 -0.8830000162124634,-29.429000854492188 -7.2769999504089355,-23.266000747680664 C-11.41100025177002,-19.2810001373291 -12.932999610900879,-13.619999885559082 -11.838000297546387,-8.38599967956543 C-11.84000015258789,-8.302000045776367 -11.857999801635742,-8.232000350952148 -11.854999542236328,-8.144000053405762 C-11.748000144958496,-4.895999908447266 -13.994999885559082,-1.6180000305175781 -15.579999923706055,0.2800000011920929 C-16.010000228881836,0.7070000171661377 -16.408000946044922,1.1540000438690186 -16.780000686645508,1.6160000562667847 C-16.97100067138672,1.809999942779541 -17.090999603271484,1.9259999990463257 -17.090999603271484,1.9259999990463257 C-17.090999603271484,1.9259999990463257 -17.047000885009766,1.965000033378601 -17.047000885009766,1.965000033378601 C-21.77899932861328,8.170000076293945 -21.424999237060547,17.05699920654297 -15.843000411987305,22.849000930786133 C-9.680000305175781,29.242000579833984 0.49799999594688416,29.429000854492188 6.890999794006348,23.267000198364258 C7.310999870300293,22.86199951171875 7.701000213623047,22.437999725341797 8.067000389099121,22.000999450683594 C14.873000144958496,14.560999870300293 18.14699935913086,7.539000034332275 19.60700035095215,1.7719999551773071 C19.709999084472656,1.5240000486373901 19.797000885009766,1.2640000581741333 19.868000030517578,0.9919999837875366z"></path></g><g opacity="1" transform="matrix(1,0,0,1,213.9010009765625,160.22000122070312)"><path fill="rgb(108,108,255)" fill-opacity="1" d=" M17.547000885009766,-8.359999656677246 C17.511999130249023,-8.62600040435791 17.45800018310547,-8.895000457763672 17.382999420166016,-9.166000366210938 C15.366999626159668,-16.485000610351562 10.182000160217285,-25.15399932861328 1.6490000486373901,-27.61199951171875 C-6.882999897003174,-30.06999969482422 -15.793000221252441,-25.145999908447266 -18.250999450683594,-16.613000869750977 C-19.836000442504883,-11.11400032043457 -18.340999603271484,-5.4679999351501465 -14.802000045776367,-1.4830000400543213 C-14.756999969482422,-1.3980000019073486 -14.71399974822998,-1.3140000104904175 -14.65999984741211,-1.2269999980926514 C-12.944000244140625,1.534000039100647 -13.253000259399414,5.494999885559082 -13.675999641418457,7.931000232696533 C-13.836000442504883,8.515999794006348 -13.956999778747559,9.10200023651123 -14.048999786376953,9.689000129699707 C-14.116999626159668,9.95199966430664 -14.164999961853027,10.112000465393066 -14.164999961853027,10.112000465393066 C-14.164999961853027,10.112000465393066 -14.104999542236328,10.12399959564209 -14.104999542236328,10.12399959564209 C-15.102999687194824,17.863000869750977 -10.354999542236328,25.385000228881836 -2.625999927520752,27.61199951171875 C5.9070000648498535,30.06999969482422 14.815999984741211,25.145000457763672 17.274999618530273,16.613000869750977 C17.43600082397461,16.052000045776367 17.562000274658203,15.489999771118164 17.660999298095703,14.928999900817871 C19.836999893188477,5.083000183105469 19.163999557495117,-2.634999990463257 17.547000885009766,-8.359999656677246z"></path></g><g opacity="1" transform="matrix(1,0,0,1,65.08000183105469,292.8240051269531)"><path fill="rgb(108,108,255)" fill-opacity="1" d=" M14.87600040435791,2.515000104904175 C14.836999893188477,2.427000045776367 14.798999786376953,2.3389999866485596 14.751999855041504,2.249000072479248 C13.239999771118164,-0.628000020980835 13.833999633789062,-4.557000160217285 14.432999610900879,-6.955999851226807 C14.635000228881836,-7.5279998779296875 14.79800033569336,-8.104000091552734 14.932000160217285,-8.682000160217285 C15.017999649047852,-8.9399995803833 15.07699966430664,-9.095999717712402 15.07699966430664,-9.095999717712402 C15.07699966430664,-9.095999717712402 15.020000457763672,-9.11299991607666 15.020000457763672,-9.11299991607666 C16.575000762939453,-16.759000778198242 12.385000228881836,-24.604000091552734 4.836999893188477,-27.385000228881836 C-3.496000051498413,-30.45400047302246 -12.739999771118164,-26.187000274658203 -15.809000015258789,-17.854000091552734 C-16.010000228881836,-17.30699920654297 -16.176000595092773,-16.7549991607666 -16.31599998474121,-16.20199966430664 C-19.198999404907227,-6.539999961853027 -19.086000442504883,1.2070000171661377 -17.886999130249023,7.0329999923706055 C-17.871999740600586,7.301000118255615 -17.836999893188477,7.572999954223633 -17.781999588012695,7.848999977111816 C-16.299999237060547,15.295000076293945 -11.755999565124512,24.31599998474121 -3.4240000247955322,27.385000228881836 C4.9079999923706055,30.45400047302246 14.151000022888184,26.187000274658203 17.219999313354492,17.854999542236328 C19.197999954223633,12.484000205993652 18.117000579833984,6.744999885559082 14.87600040435791,2.515000104904175z"></path></g><g opacity="1" transform="matrix(1,0,0,1,107.0199966430664,231.48899841308594)"><path fill="rgb(108,108,255)" fill-opacity="1" d=" M20.240999221801758,-12.907999992370605 C19.73200035095215,-13.194000244140625 19.214000701904297,-13.444999694824219 18.690000534057617,-13.670000076293945 C9.604999542236328,-18.04400062561035 1.937999963760376,-19.156999588012695 -4.005000114440918,-18.895000457763672 C-4.271999835968018,-18.922000885009766 -4.546000003814697,-18.930999755859375 -4.827000141143799,-18.920000076293945 C-12.413999557495117,-18.634000778198242 -22.038999557495117,-15.574000358581543 -26.386999130249023,-7.830999851226807 C-30.735000610351562,-0.08900000154972076 -27.982999801635742,9.711999893188477 -20.240999221801758,14.0600004196167 C-16.378999710083008,16.229000091552734 -12.005999565124512,16.6299991607666 -8.052000045776367,15.527999877929688 C-0.9419999718666077,14.571000099182129 5.73199987411499,15.829999923706055 5.73199987411499,15.829999923706055 C5.73199987411499,15.829999923706055 5.767000198364258,15.76099967956543 5.767000198364258,15.76099967956543 C13.281000137329102,19.156999588012695 22.27400016784668,16.30900001525879 26.38800048828125,8.982999801635742 C30.735000610351562,1.2410000562667847 27.982999801635742,-8.5600004196167 20.240999221801758,-12.907999992370605z"></path></g><g opacity="1" transform="matrix(1,0,0,1,118.77799987792969,279.9930114746094)"><path fill="rgb(108,108,255)" fill-opacity="1" d=" M25.298999786376953,-7.808000087738037 C25.25200080871582,-7.867000102996826 25.195999145507812,-7.916999816894531 25.148000717163086,-7.974999904632568 C25.148000717163086,-7.974999904632568 25.17300033569336,-7.993000030517578 25.17300033569336,-7.993000030517578 C24.90399932861328,-8.293999671936035 24.625999450683594,-8.579999923706055 24.350000381469727,-8.869000434875488 C24.28499984741211,-8.937000274658203 24.222999572753906,-9.010000228881836 24.1560001373291,-9.07699966430664 C15.001999855041504,-18.530000686645508 2.005000114440918,-21.740999221801758 -4.7210001945495605,-22.80299949645996 C-12.097999572753906,-24.23699951171875 -20.0049991607666,-24.41200065612793 -25.643999099731445,-19.486000061035156 C-32.33100128173828,-13.645000457763672 -32.67300033569336,-2.809999942779541 -26.83099937438965,3.877000093460083 C-23.347999572753906,7.864999771118164 -18.332000732421875,9.699999809265137 -13.430000305175781,9.309000015258789 C-3.0409998893737793,9.329999923706055 -1.0789999961853027,11.722999572753906 -1.0789999961853027,11.722999572753906 C-1.0789999961853027,11.722999572753906 -1.0540000200271606,11.704000473022461 -1.0540000200271606,11.704000473022461 C-0.32199999690055847,13.6899995803833 0.6700000166893005,15.501999855041504 1.940999984741211,16.95800018310547 C7.7829999923706055,23.645999908447266 18.006999969482422,24.410999298095703 24.69499969482422,18.569000244140625 C31.381999969482422,12.72700023651123 32.67399978637695,1.437999963760376 25.298999786376953,-7.808000087738037z"></path></g><g opacity="1" transform="matrix(1,0,0,1,185.99200439453125,333.6199951171875)"><path fill="rgb(108,108,255)" fill-opacity="1" d=" M25.447999954223633,6.479000091552734 C25.437000274658203,6.4039998054504395 25.413999557495117,6.334000110626221 25.402000427246094,6.258999824523926 C25.402000427246094,6.258999824523926 25.430999755859375,6.255000114440918 25.430999755859375,6.255000114440918 C25.35099983215332,5.859000205993652 25.256000518798828,5.4720001220703125 25.163000106811523,5.083000183105469 C25.139999389648438,4.992000102996826 25.12299919128418,4.89900016784668 25.099000930786133,4.809000015258789 C21.941999435424805,-7.966000080108643 12.324999809265137,-17.277999877929688 7.046000003814697,-21.57900047302246 C1.3910000324249268,-26.52899932861328 -5.355000019073486,-30.658000946044922 -12.706999778747559,-29.23699951171875 C-21.424999237060547,-27.552000045776367 -27.17099952697754,-18.360000610351562 -25.486000061035156,-9.642000198364258 C-24.481000900268555,-4.442999839782715 -21.06800079345703,-0.33399999141693115 -16.635000228881836,1.7929999828338623 C-7.664999961853027,7.0370001792907715 -7.172999858856201,10.093000411987305 -7.172999858856201,10.093000411987305 C-7.172999858856201,10.093000411987305 -7.164000034332275,10.092000007629395 -7.164000034332275,10.092000007629395 C-7.53000020980835,12.175999641418457 -7.564000129699707,14.23900032043457 -7.197000026702881,16.136999130249023 C-5.51200008392334,24.854999542236328 2.940000057220459,30.659000396728516 11.657999992370605,28.972999572753906 C20.37700080871582,27.288000106811523 27.17099952697754,18.18000030517578 25.447999954223633,6.479000091552734z"></path></g><g opacity="1" transform="matrix(1,0,0,1,251.05299377441406,89.4469985961914)"><path fill="rgb(108,108,255)" fill-opacity="1" d=" M27.284000396728516,-14.32800006866455 C25.003999710083008,-22.90999984741211 16.197999954223633,-28.01799964904785 7.616000175476074,-25.738000869750977 C2.2769999504089355,-24.31999969482422 -1.715000033378601,-20.375 -3.4230000972747803,-15.529999732971191 C-3.4809999465942383,-15.432999610900879 -3.5369999408721924,-15.33899974822998 -3.5969998836517334,-15.227999687194824 C-6.73199987411499,-9.364999771118164 -11.87600040435791,-6.578000068664551 -14.928000450134277,-5.373000144958496 C-14.980999946594238,-5.360000133514404 -15.03499984741211,-5.353000164031982 -15.088000297546387,-5.339000225067139 C-15.779999732971191,-5.156000137329102 -16.440000534057617,-4.915999889373779 -17.083999633789062,-4.651000022888184 C-17.295000076293945,-4.5960001945495605 -17.424999237060547,-4.565999984741211 -17.424999237060547,-4.565999984741211 C-17.424999237060547,-4.565999984741211 -17.4060001373291,-4.510000228881836 -17.4060001373291,-4.510000228881836 C-24.55699920654297,-1.3860000371932983 -28.565000534057617,6.553999900817871 -26.499000549316406,14.32800006866455 C-24.219999313354492,22.90999984741211 -15.414999961853027,28.018999099731445 -6.833000183105469,25.73900032043457 C-6.2729997634887695,25.59000015258789 -5.729000091552734,25.410999298095703 -5.198999881744385,25.20800018310547 C19.075000762939453,17.12299919128418 25.659000396728516,-0.19300000369548798 25.659000396728516,-0.19300000369548798 C25.659000396728516,-0.19300000369548798 25.632999420166016,-0.20200000703334808 25.613000869750977,-0.20900000631809235 C27.618999481201172,-4.574999809265137 28.56599998474121,-9.503000259399414 27.284000396728516,-14.32800006866455z"></path></g><g opacity="1" transform="matrix(1,0,0,1,111.56900024414062,131.572998046875)"><path fill="rgb(108,108,255)" fill-opacity="1" d=" M23.214000701904297,-9.854999542236328 C22.709999084472656,-10.142000198364258 22.195999145507812,-10.395999908447266 21.676000595092773,-10.62399959564209 C-1.2869999408721924,-21.9060001373291 -18.131000518798828,-14.194999694824219 -18.131000518798828,-14.194999694824219 C-18.131000518798828,-14.194999694824219 -18.118999481201172,-14.170000076293945 -18.110000610351562,-14.152000427246094 C-22.60300064086914,-12.451000213623047 -26.735000610351562,-9.604999542236328 -29.208999633789062,-5.26800012588501 C-33.61000061035156,2.444000005722046 -30.924999237060547,12.263999938964844 -23.21299934387207,16.665000915527344 C-18.413999557495117,19.402000427246094 -12.803000450134277,19.395000457763672 -8.185999870300293,17.143999099731445 C-8.07699966430664,17.114999771118164 -7.968999862670898,17.089000701904297 -7.8480000495910645,17.051000595092773 C-1.5,15.07699966430664 4.119999885559082,16.70199966430664 7.138999938964844,17.986000061035156 C7.186999797821045,18.013999938964844 7.229000091552734,18.047000885009766 7.2779998779296875,18.073999404907227 C7.89900016784668,18.429000854492188 8.536999702453613,18.722000122070312 9.182000160217285,18.986000061035156 C9.371000289916992,19.0939998626709 9.484000205993652,19.165000915527344 9.484000205993652,19.165000915527344 C9.484000205993652,19.165000915527344 9.510000228881836,19.111000061035156 9.510000228881836,19.111000061035156 C16.795000076293945,21.9060001373291 25.222999572753906,19.065000534057617 29.208999633789062,12.079000473022461 C33.61000061035156,4.366000175476074 30.927000045776367,-5.453999996185303 23.214000701904297,-9.854999542236328z"></path></g><g opacity="1" transform="matrix(1,0,0,1,96.34700012207031,187.68600463867188)"><path fill="rgb(108,108,255)" fill-opacity="1" d=" M21.277999877929688,-17.079999923706055 C20.68600082397461,-17.27899932861328 20.09000015258789,-17.42799949645996 19.493000030517578,-17.549999237060547 C19.493000030517578,-17.549999237060547 19.4950008392334,-17.554000854492188 19.4950008392334,-17.554000854492188 C19.451000213623047,-17.56100082397461 19.406999588012695,-17.56599998474121 19.363000869750977,-17.572999954223633 C18.844999313354492,-17.673999786376953 18.32699966430664,-17.74799919128418 17.80900001525879,-17.79400062561035 C5.8429999351501465,-19.381999969482422 -5.340000152587891,-18.09000015258789 -12.251999855041504,-16.836999893188477 C-12.675000190734863,-16.832000732421875 -13.10200023651123,-16.795000076293945 -13.532999992370605,-16.695999145507812 C-14.133999824523926,-16.55900001525879 -14.730999946594238,-16.399999618530273 -15.326000213623047,-16.231000900268555 C-17.888999938964844,-15.680999755859375 -19.357999801635742,-15.24899959564209 -19.357999801635742,-15.24899959564209 C-19.357999801635742,-15.24899959564209 -19.26799964904785,-15.116999626159668 -19.114999771118164,-14.892999649047852 C-24.274999618530273,-12.659000396728516 -28.687999725341797,-8.869000434875488 -30.790000915527344,-2.622999906539917 C-33.62200164794922,5.793000221252441 -29.094999313354492,14.91100025177002 -20.679000854492188,17.743000030517578 C-15.809000015258789,19.381999969482422 -10.713000297546387,18.545000076293945 -6.7270002365112305,15.928000450134277 C0.6949999928474426,12.503999710083008 8.095000267028809,13.005000114440918 11.470999717712402,13.503999710083008 C19.329999923706055,15.605999946594238 28.143999099731445,10.836000442504883 30.833999633789062,2.8429999351501465 C33.62300109863281,-5.445000171661377 29.344999313354492,-14.364999771118164 21.277999877929688,-17.079999923706055z"></path></g><g opacity="1" transform="matrix(1,0,0,1,32.816001892089844,156.8280029296875)"><path fill="rgb(108,108,255)" fill-opacity="1" d=" M18.77400016784668,-20.41900062561035 C18.160999298095703,-20.53700065612793 17.549999237060547,-20.604000091552734 16.941999435424805,-20.645999908447266 C16.941999435424805,-20.645999908447266 16.941999435424805,-20.64900016784668 16.941999435424805,-20.64900016784668 C16.89699935913086,-20.649999618530273 16.85300064086914,-20.649999618530273 16.808000564575195,-20.650999069213867 C16.281999588012695,-20.68199920654297 15.76099967956543,-20.68400001525879 15.241999626159668,-20.660999298095703 C3.1710000038146973,-20.631000518798828 -7.738999843597412,-17.851999282836914 -14.420999526977539,-15.6850004196167 C-14.83899974822998,-15.621999740600586 -15.255999565124512,-15.529000282287598 -15.670000076293945,-15.373000144958496 C-16.24799919128418,-15.156000137329102 -16.819000244140625,-14.918999671936035 -17.38599967956543,-14.67199993133545 C-19.85300064086914,-13.782999992370605 -21.250999450683594,-13.159000396728516 -21.250999450683594,-13.159000396728516 C-21.250999450683594,-13.159000396728516 -21.143999099731445,-13.039999961853027 -20.96299934387207,-12.83899974822998 C-25.777000427246094,-9.934000015258789 -29.641000747680664,-5.585999965667725 -30.886999130249023,0.8849999904632568 C-32.566001892089844,9.604999542236328 -26.858999252319336,18.034000396728516 -18.139999389648438,19.71299934387207 C-13.093999862670898,20.684999465942383 -8.154000282287598,19.17099952697754 -4.553999900817871,16.04400062561035 C2.3420000076293945,11.656999588012695 9.741000175476074,11.16100025177002 13.152999877929688,11.20300006866455 C21.224000930786133,12.232999801635742 29.31800079345703,6.324999809265137 30.913000106811523,-1.9559999704360962 C32.566001892089844,-10.543999671936035 27.131999969482422,-18.809999465942383 18.77400016784668,-20.41900062561035z"></path></g><g opacity="1" transform="matrix(1,0,0,1,261.47698974609375,150.97500610351562)"><path fill="rgb(108,108,255)" fill-opacity="1" d=" M8.864999771118164,-23.43000030517578 C8.864999771118164,-23.43000030517578 8.845999717712402,-23.409000396728516 8.831999778747559,-23.393999099731445 C5.561999797821045,-26.913000106811523 1.36899995803833,-29.66699981689453 -3.5799999237060547,-30.323999404907227 C-12.383000373840332,-31.490999221801758 -20.46500015258789,-25.301000595092773 -21.631999969482422,-16.49799919128418 C-22.357999801635742,-11.022000312805176 -20.233999252319336,-5.827000141143799 -16.408000946044922,-2.4000000953674316 C-16.340999603271484,-2.309000015258789 -16.274999618530273,-2.2200000286102295 -16.19499969482422,-2.122999906539917 C-11.972999572753906,3.013000011444092 -11.359000205993652,8.829999923706055 -11.409000396728516,12.111000061035156 C-11.416999816894531,12.166000366210938 -11.432000160217285,12.218000411987305 -11.439000129699707,12.27299976348877 C-11.532999992370605,12.982000350952148 -11.562999725341797,13.682999610900879 -11.564000129699707,14.380000114440918 C-11.593000411987305,14.595999717712402 -11.616000175476074,14.72700023651123 -11.616000175476074,14.72700023651123 C-11.616000175476074,14.72700023651123 -11.557000160217285,14.730999946594238 -11.557000160217285,14.730999946594238 C-11.397000312805176,22.531999588012695 -5.586999893188477,29.267000198364258 2.38700008392334,30.323999404907227 C11.189000129699707,31.490999221801758 19.270999908447266,25.301000595092773 20.437999725341797,16.49799919128418 C20.513999938964844,15.923999786376953 20.555999755859375,15.352999687194824 20.570999145507812,14.78600025177002 C22.358999252319336,-10.737000465393066 8.864999771118164,-23.43000030517578 8.864999771118164,-23.43000030517578z"></path></g><g opacity="1" transform="matrix(1,0,0,1,303.35400390625,218.85299682617188)"><path fill="rgb(108,108,255)" fill-opacity="1" d=" M26.34000015258789,4.03000020980835 C26.135000228881836,3.48799991607666 25.900999069213867,2.9649999141693115 25.645000457763672,2.4590001106262207 C15.133999824523926,-20.868000030517578 -2.763000011444092,-25.656999588012695 -2.763000011444092,-25.656999588012695 C-2.763000011444092,-25.656999588012695 -2.7690000534057617,-25.6299991607666 -2.7739999294281006,-25.608999252319336 C-7.321000099182129,-27.160999298095703 -12.317999839782715,-27.60099983215332 -16.988000869750977,-25.834999084472656 C-25.292999267578125,-22.694000244140625 -29.481000900268555,-13.414999961853027 -26.340999603271484,-5.109000205993652 C-24.386999130249023,0.057999998331069946 -20.055999755859375,3.628000020980835 -15.062999725341797,4.834000110626221 C-14.961000442504883,4.881999969482422 -14.859999656677246,4.928999900817871 -14.743000030517578,4.9770002365112305 C-8.593000411987305,7.500999927520752 -5.297999858856201,12.333999633789062 -3.7890000343322754,15.246999740600586 C-3.7699999809265137,15.298999786376953 -3.756999969482422,15.35200023651123 -3.73799991607666,15.404000282287598 C-3.484999895095825,16.072999954223633 -3.178999900817871,16.704999923706055 -2.8499999046325684,17.319000244140625 C-2.7739999294281006,17.523000717163086 -2.7320001125335693,17.649999618530273 -2.7320001125335693,17.649999618530273 C-2.7320001125335693,17.649999618530273 -2.677999973297119,17.624000549316406 -2.677999973297119,17.624000549316406 C1.156999945640564,24.420000076293945 9.463000297546387,27.60099983215332 16.98699951171875,24.756000518798828 C25.292999267578125,21.614999771118164 29.481000900268555,12.336000442504883 26.34000015258789,4.03000020980835z"></path></g><g opacity="1" transform="matrix(1,0,0,1,308.8240051269531,103.90899658203125)"><path fill="rgb(108,108,255)" fill-opacity="1" d=" M22.85700035095215,8.345000267028809 C23.520000457763672,-11.340999603271484 11.510000228881836,-22.202999114990234 7.775000095367432,-25.09000015258789 C4.49399995803833,-28.645999908447266 0.27799999713897705,-31.437000274658203 -4.706999778747559,-32.097999572753906 C-13.510000228881836,-33.26499938964844 -21.591999053955078,-27.075000762939453 -22.759000778198242,-18.27199935913086 C-23.520000457763672,-12.529999732971191 -21.13800048828125,-7.109000205993652 -16.954999923706055,-3.6989998817443848 C-16.81999969482422,-3.4140000343322754 -16.458999633789062,-3.0969998836517334 -15.810999870300293,-2.746000051498413 C-8.968000411987305,0.9599999785423279 -8.36299991607666,6.061999797821045 -8.765999794006348,9.156999588012695 C-8.793999671936035,9.241000175476074 -8.82699966430664,9.321999549865723 -8.854000091552734,9.406000137329102 C-11.663000106811523,18.21299934387207 -11.1850004196167,27.386999130249023 -2.930000066757202,30.656999588012695 C3.6530001163482666,33.26499938964844 20.42799949645996,32.21699905395508 23.023000717163086,13.631999969482422 C23.275999069213867,11.819999694824219 23.195999145507812,10.043000221252441 22.85700035095215,8.345000267028809z"></path></g><g opacity="1" transform="matrix(1,0,0,1,122.56300354003906,349.3110046386719)"><path fill="rgb(108,108,255)" fill-opacity="1" d=" M11.409000396728516,-22.16200065612793 C9.338000297546387,-26.534000396728516 6.145999908447266,-30.454999923706055 1.5850000381469727,-32.571998596191406 C-6.468999862670898,-36.31100082397461 -16.02899932861328,-32.8129997253418 -19.76799964904785,-24.759000778198242 C-22.207000732421875,-19.5049991607666 -21.552000045776367,-13.619999885559082 -18.576000213623047,-9.118000030517578 C-18.5310001373291,-8.805000305175781 -18.2810001373291,-8.395999908447266 -17.76799964904785,-7.868000030517578 C-12.340999603271484,-2.2890000343322754 -13.284000396728516,2.760999917984009 -14.592000007629395,5.59499979019165 C-14.642999649047852,5.666999816894531 -14.699999809265137,5.735000133514404 -14.75100040435791,5.808000087738037 C-20.058000564575195,13.37600040435791 -22.33799934387207,22.27400016784668 -15.434000015258789,27.857999801635742 C-9.928000450134277,32.308998107910156 6.396999835968018,36.3120002746582 14.416999816894531,19.347000122070312 C15.197999954223633,17.69300079345703 15.652000427246094,15.972999572753906 15.835000038146973,14.25100040435791 C22.33799934387207,-4.3420000076293945 14.11299991607666,-18.29199981689453 11.409000396728516,-22.16200065612793z"></path></g><g opacity="1" transform="matrix(1,0,0,1,238.33200073242188,282.572998046875)"><path fill="rgb(108,108,255)" fill-opacity="1" d=" M9.343000411987305,-23.8439998626709 C6.5279998779296875,-27.777999877929688 2.690000057220459,-31.069000244140625 -2.174999952316284,-32.34199905395508 C-10.765999794006348,-34.5890007019043 -19.552000045776367,-29.44700050354004 -21.798999786376953,-20.85700035095215 C-23.264999389648438,-15.253000259399414 -21.572999954223633,-9.57800006866455 -17.844999313354492,-5.677000045776367 C-17.7450008392334,-5.376999855041504 -17.427000045776367,-5.019999980926514 -16.82699966430664,-4.591000080108643 C-10.494999885559082,-0.06599999964237213 -10.526000022888184,5.072000026702881 -11.3100004196167,8.093999862670898 C-11.347999572753906,8.173999786376953 -11.390999794006348,8.24899959564209 -11.428000450134277,8.329000473022461 C-15.305000305175781,16.719999313354492 -15.967000007629395,25.884000778198242 -8.180000305175781,30.150999069213867 C-1.9709999561309814,33.55400085449219 14.805000305175781,34.5890007019043 19.680999755859375,16.4689998626709 C20.156999588012695,14.70199966430664 20.297000885009766,12.928000450134277 20.17099952697754,11.201000213623047 C23.264999389648438,-8.251999855041504 12.692000389099121,-20.516000747680664 9.343000411987305,-23.8439998626709z"></path></g><g opacity="1" transform="matrix(1,0,0,1,189.56100463867188,90.64800262451172)"><path fill="rgb(108,108,255)" fill-opacity="1" d=" M9.107000350952148,16.781999588012695 C9.107000350952148,16.781999588012695 -11.060999870300293,15.562999725341797 -11.060999870300293,15.562999725341797 C-19.993000030517578,15.02299976348877 -26.797000885009766,7.3460001945495605 -26.256999969482422,-1.5859999656677246 C-25.716999053955078,-10.517999649047852 -18.038999557495117,-17.32200050354004 -9.107000350952148,-16.781999588012695 C-9.107000350952148,-16.781999588012695 11.062000274658203,-15.562999725341797 11.062000274658203,-15.562999725341797 C19.993999481201172,-15.02299976348877 26.797000885009766,-7.3460001945495605 26.256999969482422,1.5859999656677246 C25.718000411987305,10.517999649047852 18.038999557495117,17.32200050354004 9.107000350952148,16.781999588012695z"></path></g><g opacity="1" transform="matrix(1,0,0,1,119.53500366210938,81.98500061035156)"><path fill="rgb(108,108,255)" fill-opacity="1" d=" M8.272000312805176,17.208999633789062 C8.272000312805176,17.208999633789062 -11.812000274658203,15.001999855041504 -11.812000274658203,15.001999855041504 C-20.707000732421875,14.02400016784668 -27.125,6.019000053405762 -26.14699935913086,-2.875 C-25.16900062561035,-11.770000457763672 -17.165000915527344,-18.187000274658203 -8.270999908447266,-17.208999633789062 C-8.270999908447266,-17.208999633789062 11.814000129699707,-15.001999855041504 11.814000129699707,-15.001999855041504 C20.70800018310547,-14.02400016784668 27.125,-6.019999980926514 26.14699935913086,2.875 C25.16900062561035,11.770000457763672 17.16699981689453,18.187000274658203 8.272000312805176,17.208999633789062z"></path></g><g opacity="1" transform="matrix(1,0,0,1,223.2689971923828,215.0989990234375)"><path fill="rgb(108,108,255)" fill-opacity="1" d=" M17.709999084472656,15.590999603271484 C17.709999084472656,15.590999603271484 -16.573999404907227,16.792999267578125 -16.573999404907227,16.792999267578125 C-25.517000198364258,17.10700035095215 -33.020999908447266,10.111000061035156 -33.33399963378906,1.1690000295639038 C-33.64799880981445,-7.77400016784668 -26.652999877929688,-15.277999877929688 -17.709999084472656,-15.592000007629395 C-17.709999084472656,-15.592000007629395 16.573999404907227,-16.792999267578125 16.573999404907227,-16.792999267578125 C25.517000198364258,-17.10700035095215 33.020999908447266,-10.111000061035156 33.334999084472656,-1.1679999828338623 C33.64799880981445,7.77400016784668 26.652999877929688,15.277000427246094 17.709999084472656,15.590999603271484z"></path></g><g opacity="1" transform="matrix(1,0,0,1,194.89300537109375,41.01499938964844)"><path fill="rgb(108,108,255)" fill-opacity="1" d=" M-0.4950000047683716,19.086999893188477 C-0.4950000047683716,19.086999893188477 -17.35700035095215,7.955999851226807 -17.35700035095215,7.955999851226807 C-24.825000762939453,3.0269999504089355 -26.882999420166016,-7.02400016784668 -21.952999114990234,-14.491999626159668 C-17.023000717163086,-21.959999084472656 -6.9720001220703125,-24.01799964904785 0.4959999918937683,-19.08799934387207 C0.4959999918937683,-19.08799934387207 17.357999801635742,-7.955999851226807 17.357999801635742,-7.955999851226807 C24.826000213623047,-3.0260000228881836 26.882999420166016,7.025000095367432 21.952999114990234,14.491999626159668 C17.023000717163086,21.959999084472656 6.9730000495910645,24.017000198364258 -0.4950000047683716,19.086999893188477z"></path></g><g opacity="1" transform="matrix(1,0,0,1,250.67999267578125,27.06800079345703)"><path fill="rgb(108,108,255)" fill-opacity="1" d=" M-16.808000564575195,9.059000015258789 C-16.808000564575195,9.059000015258789 -15.531999588012695,-11.105999946594238 -15.531999588012695,-11.105999946594238 C-14.965999603271484,-20.035999298095703 -7.269000053405762,-26.81800079345703 1.6619999408721924,-26.25200080871582 C10.593000411987305,-25.687000274658203 17.37299919128418,-17.98900032043457 16.808000564575195,-9.059000015258789 C16.808000564575195,-9.059000015258789 15.531000137329102,11.105999946594238 15.531000137329102,11.105999946594238 C14.965999603271484,20.035999298095703 7.269000053405762,26.81800079345703 -1.6610000133514404,26.253000259399414 C-10.592000007629395,25.687000274658203 -17.37299919128418,17.989999771118164 -16.808000564575195,9.059000015258789z"></path></g><g opacity="1" transform="matrix(1,0,0,1,171.67300415039062,263.9540100097656)"><path fill="rgb(108,108,255)" fill-opacity="1" d=" M26.135000228881836,3.2039999961853027 C17.76099967956543,-10.352999687194824 -5.676000118255615,-28.2189998626709 -5.676000118255615,-28.2189998626709 C-5.676000118255615,-28.2189998626709 -5.692999839782715,-28.19700050354004 -5.692999839782715,-28.19700050354004 C-8.38700008392334,-30.219999313354492 -11.723999977111816,-31.433000564575195 -15.35200023651123,-31.433000564575195 C-24.256000518798828,-31.433000564575195 -31.472999572753906,-24.21500015258789 -31.472999572753906,-15.312000274658203 C-31.472999572753906,-10.303000450134277 -29.18899917602539,-5.828000068664551 -25.606000900268555,-2.871000051498413 C-25.606000900268555,-2.871000051498413 -25.65399932861328,-2.809000015258789 -25.65399932861328,-2.809000015258789 C-25.65399932861328,-2.809000015258789 -25.297000885009766,-2.5869998931884766 -24.66200065612793,-2.1649999618530273 C-24.45599937438965,-2.0190000534057617 -24.246999740600586,-1.878000020980835 -24.033000946044922,-1.7419999837875366 C-20.711000442504883,0.5199999809265137 -12.843000411987305,6.256999969482422 -5.869999885559082,14.260000228881836 C3.309999942779541,24.79400062561035 16.010000228881836,31.433000564575195 23.0310001373291,24.92799949645996 C31.472999572753906,17.108999252319336 30.20800018310547,9.798999786376953 26.135000228881836,3.2039999961853027z"></path></g></g></g><g style="display: none;"><g><path></path></g><g><path></path></g></g><g style="display: none;"><g><path></path></g><g><path></path></g><g><path></path></g><g><path></path></g><g><path></path></g></g><g transform="matrix(1,0,0,1,176.5469970703125,314.94598388671875)" opacity="1" style="display: block;"><g opacity="1" transform="matrix(0.7526215314865112,0.7081937193870544,-0.6116234064102173,0.6499930024147034,94.11000061035156,44.5369987487793)"><path stroke-linecap="round" stroke-linejoin="round" fill-opacity="0" stroke="rgb(108,108,255)" stroke-opacity="1" stroke-width="4" d=" M52.80400085449219,-0.2280000001192093 C52.1150016784668,25.55500030517578 31.06800079345703,38.486000061035156 0.8709999918937683,39.02000045776367 C-27.976999282836914,39.529998779296875 -53.012001037597656,27.400999069213867 -52.242000579833984,0 C-52.29399871826172,0.08100000023841858 -55.395999908447266,40 0.890999972820282,38.957000732421875 C58.970001220703125,37.88100051879883 52.9379997253418,-5.252999782562256 52.80400085449219,-0.2280000001192093z"></path></g></g><g transform="matrix(1,0,0,1,103.69200134277344,257.7950134277344)" opacity="1" style="display: block;"><g opacity="1" transform="matrix(1,0,0,1,130.7239990234375,130.48199462890625)"><path fill="url(#__lottie_element_28305)" mask="url(#__lottie_element_28307)" fill-opacity="1" d="M0 0 M-14.442999839782715,-130.23199462890625 C-14.442999839782715,-130.23199462890625 40.23699951171875,-58.38199996948242 40.23699951171875,-58.38199996948242 C40.23699951171875,-58.38199996948242 130.4739990234375,-55.31700134277344 130.4739990234375,-55.31700134277344 C130.4739990234375,-55.31700134277344 79.03900146484375,18.891000747680664 79.03900146484375,18.891000747680664 C79.03900146484375,18.891000747680664 104.00800323486328,105.65799713134766 104.00800323486328,105.65799713134766 C104.00800323486328,105.65799713134766 17.538999557495117,79.6709976196289 17.538999557495117,79.6709976196289 C17.538999557495117,79.6709976196289 -57.266998291015625,130.23199462890625 -57.266998291015625,130.23199462890625 C-57.266998291015625,130.23199462890625 -59.27199935913086,39.9640007019043 -59.27199935913086,39.9640007019043 C-59.27199935913086,39.9640007019043 -130.4739990234375,-15.557000160217285 -130.4739990234375,-15.557000160217285 C-130.4739990234375,-15.557000160217285 -45.24399948120117,-45.358001708984375 -45.24399948120117,-45.358001708984375 C-45.24399948120117,-45.358001708984375 -14.442999839782715,-130.23199462890625 -14.442999839782715,-130.23199462890625z"></path><g opacity="1" transform="matrix(1,0,0,1,0,0)"></g></g></g></g></g><g clip-path="url(#__lottie_element_28183)" style="display: none;"><g clip-path="url(#__lottie_element_28184)"><g style="display: none;"><g><path></path></g></g><g style="display: none;"><g><path></path></g></g><g style="display: none;"><g><path stroke-linecap="butt" stroke-linejoin="miter" fill-opacity="0" stroke-miterlimit="10"></path></g></g><g style="display: none;"><g><path></path></g></g><g style="display: none;"><g><path></path></g></g><g style="display: none;"><g><path fill="url(#__lottie_element_28282)"></path><g></g></g></g><g style="display: none;"><g><path fill="url(#__lottie_element_28278)"></path><g></g></g></g><g style="display: none;"><g><path fill="url(#__lottie_element_28274)"></path><g></g></g></g><g style="display: none;"><g><path fill="url(#__lottie_element_28267)"></path><g></g></g><g><path></path></g></g><g style="display: none;"><g><path fill="url(#__lottie_element_28270)"></path><g></g></g></g><g style="display: none;"><g><path fill="url(#__lottie_element_28250)" mask="url(#__lottie_element_28252)"></path><g></g></g></g><g style="display: none;"><g><path></path></g></g><g style="display: none;"><g><path fill="url(#__lottie_element_28255)" mask="url(#__lottie_element_28257)"></path><g></g></g><g><path stroke-linecap="butt" stroke-linejoin="miter" fill-opacity="0" stroke-miterlimit="10"></path></g><g><path stroke-linecap="round" stroke-linejoin="miter" fill-opacity="0" stroke-miterlimit="10"></path></g></g><g style="display: none;"><g><path stroke-linecap="butt" stroke-linejoin="miter" fill-opacity="0" stroke-miterlimit="10"></path></g></g><g style="display: none;"><g><path fill="url(#__lottie_element_28242)" mask="url(#__lottie_element_28244)"></path><g></g></g></g><g style="display: none;"><g><path></path></g></g><g style="display: none;"><g><path></path></g></g><g style="display: none;"><g><path stroke-linecap="butt" stroke-linejoin="miter" fill-opacity="0" stroke-miterlimit="4"></path></g></g><g style="display: none;"><g><path></path></g></g><g style="display: none;"><g><path fill="url(#__lottie_element_28229)"></path><g></g></g></g><g style="display: none;"><g><path fill="url(#__lottie_element_28225)"></path><g></g></g></g><g style="display: none;"><g><path fill="url(#__lottie_element_28221)"></path><g></g></g></g><g style="display: none;"><g><path fill="url(#__lottie_element_28214)"></path><g></g></g><g><path></path></g></g><g style="display: none;"><g><path fill="url(#__lottie_element_28217)"></path><g></g></g></g><g style="display: none;"><g><path></path></g></g><g style="display: none;"><g><path></path></g></g><g mask="url(#__lottie_element_28201)" style="display: none;"><g><g><path></path></g><g><path></path></g><g><path></path></g><g><path></path></g><g><path></path></g><g><path></path></g><g><path></path></g><g><path></path></g><g><path></path></g><g><path></path></g><g><path></path></g><g><path></path></g><g><path></path></g><g><path></path></g><g><path></path></g><g><path></path></g><g><path></path></g><g><path></path></g><g><path></path></g><g><path></path></g><g><path></path></g><g><path></path></g><g><path></path></g><g><path></path></g></g></g><g style="display: none;"><g><path stroke-linecap="round" stroke-linejoin="round" fill-opacity="0"></path></g></g><g style="display: none;"><g><path fill="url(#__lottie_element_28189)" mask="url(#__lottie_element_28191)"></path><g></g></g></g></g></g></g></svg>